<svg xmlns="http://www.w3.org/2000/svg" viewBox="0 0 29.24 25.58"><defs><style>.cls-1{fill:#fff;}</style></defs><g id="Layer_2" data-name="Layer 2"><g id="Layer_1-2" data-name="Layer 1"><path class="cls-1" d="M20.35,2.16l-.1-.05-.06-.06L20.11,2,20,1.93l-.1-.07-.13-.05h-.46l-.14,0-.11,0L19,2l-.09.12-.08.18,0,.18-.06.24V3.5l0,.31v.71l0,.3,0,.3v.16l0,.09,0,.08,0,0v0l-.06,0v.08h-.25l-.11,0-.09,0h-.27l-.13,0-.16,0-.14.05-.12.07-.1.06-.09,0L17,6.12l-.11.1-.1.08-.16.13-.08.09-.11.16,0,.1-.05,0L16.24,7,16.18,7l-.06.05-.1.09-.08.07-.14.11,0,.06,0,.06-.1.08,0,.09-.05.11-.06.08-.05.09V8l.07.06.07,0-.1.1-.07.09-.09.13-.08.14-.11.14-.17.2-.07.08V9l.07,0,.12,0,.18,0,.06,0h.14l.23,0,.19,0L16,8.81l.11-.07.12-.09h0l.18.08.2.08.21.09.23.06.27,0,.22,0h.29l0,.07,0,.1.07.07,0,.09.06.1.08.15,0,.08,0,.1,0,.11.06.11.05.07h.27l.15,0,.14,0,0,0h-.16l-.09,0-.08-.08-.11-.12-.13-.16,0-.08-.05-.13-.06-.11V9l.18,0,.19,0,.2-.06.14-.06,0,0,0,0V9l0,.08,0,.09.05.07.06.14.06.2,0,.14,0,.1,0,.11v0l0,.1,0,.09v.07l0,.08h.15l.34,0,.24,0,.09,0h-.05l-.13,0-.15-.07-.12-.07L19.61,10l0-.09-.06-.17,0-.09-.05-.15,0-.18,0-.2V8.89l.06,0,.05,0,0,0,0,0v0l.12-.06.18-.12.25-.16.21-.16L20.5,8l.11-.13.09-.16.09-.16.06-.18,0-.14v-.4l0-.11,0-.09,0-.08,0-.1-.05-.12-.1-.15L20.55,6l-.09-.14L20.4,5.8l0,0-.06-.13-.07-.15-.07-.15,0-.14L20,5,20,4.91l-.1-.18-.07-.14-.07-.16-.08-.2-.09-.32,0-.15,0-.18V3.32l0-.22V2.87l0-.05,0,0,.07,0,.09,0,.1,0,.11,0,.11,0,.11,0,.1,0,.09,0,.05,0,.16,0h.24l0,0,0,0,0,0,0,0h-.07l-.11,0-.13,0-.11,0Z"/><path class="cls-1" d="M3.77,10.32a4.28,4.28,0,0,1-1.27-.18,3.1,3.1,0,0,1-1-.55,3.86,3.86,0,0,1-.85-.9l.89-1A3.91,3.91,0,0,0,2.62,8.83a2.39,2.39,0,0,0,1.28.33A2.23,2.23,0,0,0,4.73,9a1.49,1.49,0,0,0,.59-.39A.88.88,0,0,0,5.53,8a1.14,1.14,0,0,0-.07-.41,1.08,1.08,0,0,0-.22-.35A1.5,1.5,0,0,0,4.85,7a2.73,2.73,0,0,0-.54-.24,5.48,5.48,0,0,0-.72-.17,5.8,5.8,0,0,1-1.13-.35,2.45,2.45,0,0,1-.8-.54A2,2,0,0,1,1.18,5,2.45,2.45,0,0,1,1,4a2,2,0,0,1,.22-.93,2.32,2.32,0,0,1,.61-.75,2.82,2.82,0,0,1,.92-.5,3.78,3.78,0,0,1,1.14-.17,4.07,4.07,0,0,1,1.19.17,2.93,2.93,0,0,1,1,.5,2.89,2.89,0,0,1,.7.81l-.92.9a2.83,2.83,0,0,0-.54-.67A2.08,2.08,0,0,0,4.64,3a2.14,2.14,0,0,0-.76-.14A2,2,0,0,0,3.06,3a1.33,1.33,0,0,0-.55.4A1,1,0,0,0,2.32,4a1.18,1.18,0,0,0,.09.46,1,1,0,0,0,.3.37,2,2,0,0,0,.53.29,5.3,5.3,0,0,0,.8.22,6.57,6.57,0,0,1,1.18.37,3.41,3.41,0,0,1,.88.52,2,2,0,0,1,.54.67,1.71,1.71,0,0,1,.19.8,2.66,2.66,0,0,1-.37,1.4A2.41,2.41,0,0,1,5.4,10,3.88,3.88,0,0,1,3.77,10.32Z"/><path class="cls-1" d="M10.74,10.2V6l.08.59L7.43,1.8H9l2.59,3.72-.3,0L13.62,1.8h1.49L11.86,6.73,12,5.92V10.2Z"/><path class="cls-1" d="M23.05,10.2V1.8h5.29V3.05h-4V9h4V10.2Zm.59-3.68V5.27h4V6.52Z"/><path class="cls-1" d="M1.63,22.55l-.41-1,2.68-3c.15-.15.29-.32.45-.51s.3-.39.44-.6a3.51,3.51,0,0,0,.35-.61,1.38,1.38,0,0,0,.13-.57,1.32,1.32,0,0,0-.16-.68,1,1,0,0,0-.45-.42A1.52,1.52,0,0,0,4,15a1.36,1.36,0,0,0-.71.21,2.36,2.36,0,0,0-.64.59,3.1,3.1,0,0,0-.45.89l-1-.64a3.28,3.28,0,0,1,.64-1.23,2.94,2.94,0,0,1,1-.78,3.26,3.26,0,0,1,1.33-.27,2.78,2.78,0,0,1,1.31.3,2.24,2.24,0,0,1,.91.84,2.41,2.41,0,0,1,.32,1.24,2.93,2.93,0,0,1-.06.58,3.33,3.33,0,0,1-.2.61,4.63,4.63,0,0,1-.35.65,6.87,6.87,0,0,1-.51.71c-.2.25-.42.51-.67.78l-2,2.13-.26-.37H6.94v1.28Z"/><path class="cls-1" d="M11.14,22.68a2.78,2.78,0,0,1-1.72-.54A3.51,3.51,0,0,1,8.31,20.6a6.45,6.45,0,0,1-.39-2.36,6.41,6.41,0,0,1,.39-2.36,3.4,3.4,0,0,1,1.11-1.54,2.78,2.78,0,0,1,1.72-.54,2.81,2.81,0,0,1,1.73.54A3.34,3.34,0,0,1,14,15.88a6.41,6.41,0,0,1,.39,2.36A6.45,6.45,0,0,1,14,20.6a3.45,3.45,0,0,1-1.12,1.54A2.81,2.81,0,0,1,11.14,22.68Zm0-1.21a1.57,1.57,0,0,0,1.42-.85,4.71,4.71,0,0,0,.5-2.38,4.75,4.75,0,0,0-.5-2.39,1.62,1.62,0,0,0-2.84,0,4.75,4.75,0,0,0-.5,2.39,4.71,4.71,0,0,0,.5,2.38A1.57,1.57,0,0,0,11.14,21.47Z"/><path class="cls-1" d="M16.12,22.55l-.41-1,2.68-3,.45-.51c.15-.19.3-.39.44-.6a4.3,4.3,0,0,0,.35-.61,1.56,1.56,0,0,0,.13-.57,1.32,1.32,0,0,0-.16-.68,1,1,0,0,0-.45-.42,1.55,1.55,0,0,0-.71-.15,1.36,1.36,0,0,0-.71.21,2.22,2.22,0,0,0-.64.59,2.89,2.89,0,0,0-.46.89l-1-.64a3.44,3.44,0,0,1,.65-1.23,2.85,2.85,0,0,1,1-.78,3.25,3.25,0,0,1,1.32-.27,2.79,2.79,0,0,1,1.32.3,2.21,2.21,0,0,1,.9.84,2.32,2.32,0,0,1,.33,1.24,2.93,2.93,0,0,1-.06.58,4.32,4.32,0,0,1-.2.61,4.73,4.73,0,0,1-.36.65,8.55,8.55,0,0,1-.5.71c-.2.25-.42.51-.67.78l-2,2.13-.25-.37h4.32v1.28Z"/><path class="cls-1" d="M25.38,22.55a3.18,3.18,0,0,1-1.21-.22,3,3,0,0,1-1-.64,2.89,2.89,0,0,1-.64-1,3.23,3.23,0,0,1-.23-1.22,3.62,3.62,0,0,1,.09-.75,5.8,5.8,0,0,1,.29-.9c.13-.33.29-.68.47-1.05s.4-.74.64-1.14L25,13.77h1.32l0,.13L25,16.18c-.25.42-.48.82-.67,1.19s-.36.74-.5,1.07a8,8,0,0,0-.3.91l-.3-1.27a4.64,4.64,0,0,1,.51-.68,3.33,3.33,0,0,1,.6-.48,2.87,2.87,0,0,1,.67-.3,3,3,0,0,1,.73-.1,2.41,2.41,0,0,1,1.33.39,2.85,2.85,0,0,1,1,1,2.75,2.75,0,0,1,.37,1.41A3.39,3.39,0,0,1,28,21a2.83,2.83,0,0,1-2.61,1.56Zm0-1.23a1.61,1.61,0,0,0,1.47-.87,1.92,1.92,0,0,0,.22-.94,1.73,1.73,0,0,0-.23-.86,1.87,1.87,0,0,0-.6-.65,1.53,1.53,0,0,0-.84-.24,1.69,1.69,0,0,0-1.54.86,1.72,1.72,0,0,0-.23.88,1.94,1.94,0,0,0,.23.93,1.73,1.73,0,0,0,.61.65A1.69,1.69,0,0,0,25.38,21.32Z"/></g></g></svg>