<svg width="614" height="336" viewBox="0 0 614 336" fill="none" xmlns="http://www.w3.org/2000/svg">
<path d="M212.775 60V18H218.595L244.275 52.38L243.315 52.92C243.155 51.92 243.015 50.84 242.895 49.68C242.775 48.48 242.655 47.22 242.535 45.9C242.455 44.54 242.375 43.12 242.295 41.64C242.255 40.12 242.215 38.54 242.175 36.9C242.135 35.26 242.115 33.56 242.115 31.8V18H248.595V60H242.655L217.395 26.88L218.055 26.04C218.255 28.48 218.415 30.56 218.535 32.28C218.695 33.96 218.815 35.4 218.895 36.6C219.015 37.76 219.095 38.72 219.135 39.48C219.175 40.2 219.195 40.8 219.195 41.28C219.235 41.76 219.255 42.18 219.255 42.54V60H212.775ZM270.313 60.6C267.713 60.6 265.333 59.88 263.173 58.44C261.053 57 259.353 55.04 258.073 52.56C256.793 50.08 256.153 47.28 256.153 44.16C256.153 41 256.793 38.2 258.073 35.76C259.393 33.28 261.153 31.34 263.353 29.94C265.593 28.54 268.093 27.84 270.853 27.84C272.493 27.84 273.993 28.08 275.353 28.56C276.713 29.04 277.893 29.72 278.893 30.6C279.933 31.44 280.773 32.42 281.413 33.54C282.093 34.66 282.513 35.86 282.673 37.14L281.293 36.66V28.5H287.533V60H281.293V52.5L282.733 52.08C282.493 53.16 281.993 54.22 281.233 55.26C280.513 56.26 279.573 57.16 278.413 57.96C277.293 58.76 276.033 59.4 274.633 59.88C273.273 60.36 271.833 60.6 270.313 60.6ZM271.933 54.9C273.813 54.9 275.473 54.44 276.913 53.52C278.353 52.6 279.473 51.34 280.273 49.74C281.113 48.1 281.533 46.24 281.533 44.16C281.533 42.12 281.113 40.3 280.273 38.7C279.473 37.1 278.353 35.84 276.913 34.92C275.473 34 273.813 33.54 271.933 33.54C270.093 33.54 268.453 34 267.013 34.92C265.613 35.84 264.493 37.1 263.653 38.7C262.853 40.3 262.453 42.12 262.453 44.16C262.453 46.24 262.853 48.1 263.653 49.74C264.493 51.34 265.613 52.6 267.013 53.52C268.453 54.44 270.093 54.9 271.933 54.9ZM306.062 60.6C303.422 60.6 301.042 60.14 298.922 59.22C296.802 58.3 295.042 56.94 293.642 55.14L297.842 51.54C299.042 52.94 300.342 53.96 301.742 54.6C303.182 55.2 304.802 55.5 306.602 55.5C307.322 55.5 307.982 55.42 308.582 55.26C309.222 55.06 309.762 54.78 310.202 54.42C310.682 54.06 311.042 53.64 311.282 53.16C311.522 52.64 311.642 52.08 311.642 51.48C311.642 50.44 311.262 49.6 310.502 48.96C310.102 48.68 309.462 48.38 308.582 48.06C307.742 47.7 306.642 47.34 305.282 46.98C302.962 46.38 301.062 45.7 299.582 44.94C298.102 44.18 296.962 43.32 296.162 42.36C295.562 41.6 295.122 40.78 294.842 39.9C294.562 38.98 294.422 37.98 294.422 36.9C294.422 35.58 294.702 34.38 295.262 33.3C295.862 32.18 296.662 31.22 297.662 30.42C298.702 29.58 299.902 28.94 301.262 28.5C302.662 28.06 304.142 27.84 305.702 27.84C307.182 27.84 308.642 28.04 310.082 28.44C311.562 28.84 312.922 29.42 314.162 30.18C315.402 30.94 316.442 31.84 317.282 32.88L313.742 36.78C312.982 36.02 312.142 35.36 311.222 34.8C310.342 34.2 309.442 33.74 308.522 33.42C307.602 33.1 306.762 32.94 306.002 32.94C305.162 32.94 304.402 33.02 303.722 33.18C303.042 33.34 302.462 33.58 301.982 33.9C301.542 34.22 301.202 34.62 300.962 35.1C300.722 35.58 300.602 36.12 300.602 36.72C300.642 37.24 300.762 37.74 300.962 38.22C301.202 38.66 301.522 39.04 301.922 39.36C302.362 39.68 303.022 40.02 303.902 40.38C304.782 40.74 305.902 41.08 307.262 41.4C309.262 41.92 310.902 42.5 312.182 43.14C313.502 43.74 314.542 44.44 315.302 45.24C316.102 46 316.662 46.88 316.982 47.88C317.302 48.88 317.462 50 317.462 51.24C317.462 53.04 316.942 54.66 315.902 56.1C314.902 57.5 313.542 58.6 311.822 59.4C310.102 60.2 308.182 60.6 306.062 60.6ZM324.693 60V28.5H330.873V60H324.693ZM327.693 21.54C326.373 21.54 325.353 21.2 324.633 20.52C323.913 19.84 323.553 18.88 323.553 17.64C323.553 16.48 323.913 15.54 324.633 14.82C325.393 14.1 326.413 13.74 327.693 13.74C329.013 13.74 330.033 14.08 330.753 14.76C331.473 15.44 331.833 16.4 331.833 17.64C331.833 18.8 331.453 19.74 330.693 20.46C329.973 21.18 328.973 21.54 327.693 21.54ZM339.652 60V28.5H345.892V35.22L344.752 35.94C345.072 34.9 345.572 33.9 346.252 32.94C346.972 31.98 347.832 31.14 348.832 30.42C349.872 29.66 350.972 29.06 352.132 28.62C353.332 28.18 354.552 27.96 355.792 27.96C357.592 27.96 359.172 28.26 360.532 28.86C361.892 29.46 363.012 30.36 363.892 31.56C364.772 32.76 365.412 34.26 365.812 36.06L364.852 35.82L365.272 34.8C365.712 33.88 366.312 33.02 367.072 32.22C367.872 31.38 368.772 30.64 369.772 30C370.772 29.36 371.832 28.86 372.952 28.5C374.072 28.14 375.172 27.96 376.252 27.96C378.612 27.96 380.552 28.44 382.072 29.4C383.632 30.36 384.792 31.82 385.552 33.78C386.352 35.74 386.752 38.18 386.752 41.1V60H380.512V41.46C380.512 39.66 380.272 38.2 379.792 37.08C379.352 35.92 378.672 35.06 377.752 34.5C376.832 33.94 375.652 33.66 374.212 33.66C373.092 33.66 372.032 33.86 371.032 34.26C370.072 34.62 369.232 35.14 368.512 35.82C367.792 36.5 367.232 37.3 366.832 38.22C366.432 39.1 366.232 40.08 366.232 41.16V60H359.992V41.34C359.992 39.7 359.752 38.32 359.272 37.2C358.792 36.04 358.092 35.16 357.172 34.56C356.252 33.96 355.132 33.66 353.812 33.66C352.692 33.66 351.652 33.86 350.692 34.26C349.732 34.62 348.892 35.14 348.172 35.82C347.452 36.46 346.892 37.24 346.492 38.16C346.092 39.04 345.892 40 345.892 41.04V60H339.652ZM412.203 60V18H429.303C431.583 18 433.643 18.58 435.483 19.74C437.363 20.86 438.863 22.4 439.983 24.36C441.103 26.32 441.663 28.5 441.663 30.9C441.663 33.3 441.103 35.48 439.983 37.44C438.863 39.4 437.363 40.98 435.483 42.18C433.643 43.34 431.583 43.92 429.303 43.92H418.683V60H412.203ZM418.683 37.68H429.183C430.263 37.68 431.243 37.38 432.123 36.78C433.003 36.14 433.703 35.32 434.223 34.32C434.783 33.28 435.063 32.14 435.063 30.9C435.063 29.66 434.783 28.54 434.223 27.54C433.703 26.54 433.003 25.74 432.123 25.14C431.243 24.54 430.263 24.24 429.183 24.24H418.683V37.68ZM459.604 60.6C457.004 60.6 454.624 59.88 452.464 58.44C450.344 57 448.644 55.04 447.364 52.56C446.084 50.08 445.444 47.28 445.444 44.16C445.444 41 446.084 38.2 447.364 35.76C448.684 33.28 450.444 31.34 452.644 29.94C454.884 28.54 457.384 27.84 460.144 27.84C461.784 27.84 463.284 28.08 464.644 28.56C466.004 29.04 467.184 29.72 468.184 30.6C469.224 31.44 470.064 32.42 470.704 33.54C471.384 34.66 471.804 35.86 471.964 37.14L470.584 36.66V28.5H476.824V60H470.584V52.5L472.024 52.08C471.784 53.16 471.284 54.22 470.524 55.26C469.804 56.26 468.864 57.16 467.704 57.96C466.584 58.76 465.324 59.4 463.924 59.88C462.564 60.36 461.124 60.6 459.604 60.6ZM461.224 54.9C463.104 54.9 464.764 54.44 466.204 53.52C467.644 52.6 468.764 51.34 469.564 49.74C470.404 48.1 470.824 46.24 470.824 44.16C470.824 42.12 470.404 40.3 469.564 38.7C468.764 37.1 467.644 35.84 466.204 34.92C464.764 34 463.104 33.54 461.224 33.54C459.384 33.54 457.744 34 456.304 34.92C454.904 35.84 453.784 37.1 452.944 38.7C452.144 40.3 451.744 42.12 451.744 44.16C451.744 46.24 452.144 48.1 452.944 49.74C453.784 51.34 454.904 52.6 456.304 53.52C457.744 54.44 459.384 54.9 461.224 54.9ZM484.853 60V28.5H491.093V38.4L490.493 36C490.933 34.48 491.673 33.1 492.713 31.86C493.793 30.62 495.013 29.64 496.373 28.92C497.773 28.2 499.213 27.84 500.693 27.84C501.373 27.84 502.013 27.9 502.613 28.02C503.253 28.14 503.753 28.28 504.113 28.44L502.493 35.16C502.013 34.96 501.473 34.8 500.873 34.68C500.313 34.52 499.753 34.44 499.193 34.44C498.113 34.44 497.073 34.66 496.073 35.1C495.113 35.5 494.253 36.08 493.493 36.84C492.773 37.56 492.193 38.42 491.753 39.42C491.313 40.38 491.093 41.44 491.093 42.6V60H484.853ZM513.732 73.8L520.092 59.1L520.152 64.02L504.432 28.5H511.632L521.472 51.66C521.672 52.06 521.912 52.68 522.192 53.52C522.472 54.32 522.712 55.12 522.912 55.92L521.352 56.28C521.672 55.44 521.972 54.6 522.252 53.76C522.572 52.92 522.872 52.08 523.152 51.24L531.372 28.5H538.692L525.732 60L520.392 73.8H513.732ZM554.249 60.6C551.649 60.6 549.269 59.88 547.109 58.44C544.989 57 543.289 55.04 542.009 52.56C540.729 50.08 540.089 47.28 540.089 44.16C540.089 41 540.729 38.2 542.009 35.76C543.329 33.28 545.089 31.34 547.289 29.94C549.529 28.54 552.029 27.84 554.789 27.84C556.429 27.84 557.929 28.08 559.289 28.56C560.649 29.04 561.829 29.72 562.829 30.6C563.869 31.44 564.709 32.42 565.349 33.54C566.029 34.66 566.449 35.86 566.609 37.14L565.229 36.66V28.5H571.469V60H565.229V52.5L566.669 52.08C566.429 53.16 565.929 54.22 565.169 55.26C564.449 56.26 563.509 57.16 562.349 57.96C561.229 58.76 559.969 59.4 558.569 59.88C557.209 60.36 555.769 60.6 554.249 60.6ZM555.869 54.9C557.749 54.9 559.409 54.44 560.849 53.52C562.289 52.6 563.409 51.34 564.209 49.74C565.049 48.1 565.469 46.24 565.469 44.16C565.469 42.12 565.049 40.3 564.209 38.7C563.409 37.1 562.289 35.84 560.849 34.92C559.409 34 557.749 33.54 555.869 33.54C554.029 33.54 552.389 34 550.949 34.92C549.549 35.84 548.429 37.1 547.589 38.7C546.789 40.3 546.389 42.12 546.389 44.16C546.389 46.24 546.789 48.1 547.589 49.74C548.429 51.34 549.549 52.6 550.949 53.52C552.389 54.44 554.029 54.9 555.869 54.9ZM596.058 60.6C594.698 60.6 593.338 60.38 591.978 59.94C590.658 59.5 589.438 58.92 588.318 58.2C587.238 57.44 586.318 56.62 585.558 55.74C584.838 54.82 584.358 53.9 584.118 52.98L585.678 52.14V59.82H579.498V15.6H585.678V35.7L584.718 35.16C584.918 34.24 585.358 33.36 586.038 32.52C586.718 31.64 587.578 30.86 588.618 30.18C589.698 29.46 590.858 28.9 592.098 28.5C593.338 28.06 594.598 27.84 595.878 27.84C598.718 27.84 601.238 28.54 603.438 29.94C605.638 31.34 607.378 33.28 608.658 35.76C609.938 38.2 610.578 41 610.578 44.16C610.578 47.32 609.938 50.14 608.658 52.62C607.418 55.1 605.698 57.06 603.498 58.5C601.298 59.9 598.818 60.6 596.058 60.6ZM595.038 54.96C596.878 54.96 598.518 54.5 599.958 53.58C601.398 52.62 602.538 51.34 603.378 49.74C604.218 48.1 604.638 46.24 604.638 44.16C604.638 42.12 604.218 40.3 603.378 38.7C602.578 37.06 601.458 35.78 600.018 34.86C598.578 33.94 596.918 33.48 595.038 33.48C593.158 33.48 591.498 33.94 590.058 34.86C588.618 35.78 587.478 37.06 586.638 38.7C585.798 40.3 585.378 42.12 585.378 44.16C585.378 46.24 585.798 48.1 586.638 49.74C587.478 51.34 588.618 52.62 590.058 53.58C591.498 54.5 593.158 54.96 595.038 54.96Z" fill="url(#paint0_linear_315_170)"/>
<path d="M12.9953 148.616C11.862 148.616 10.7786 148.466 9.74531 148.166C8.71198 147.866 7.74531 147.433 6.84531 146.866C5.97865 146.3 5.19531 145.633 4.49531 144.866C3.79531 144.066 3.19531 143.2 2.69531 142.266L6.09531 138.716C6.79531 139.716 7.42865 140.516 7.99531 141.116C8.59531 141.716 9.16198 142.183 9.69531 142.516C10.2286 142.85 10.762 143.083 11.2953 143.216C11.8286 143.316 12.3953 143.366 12.9953 143.366C14.1953 143.366 15.2453 143.1 16.1453 142.566C17.0453 142 17.7453 141.233 18.2453 140.266C18.7453 139.3 18.9953 138.2 18.9953 136.966V118.116H12.5953V113.116H29.7953V118.116H24.3953V137.466C24.3953 139.066 24.112 140.55 23.5453 141.916C23.012 143.25 22.2286 144.416 21.1953 145.416C20.1953 146.416 18.9953 147.2 17.5953 147.766C16.2286 148.333 14.6953 148.616 12.9953 148.616ZM42.9852 148.616C40.8185 148.616 38.8352 148.016 37.0352 146.816C35.2685 145.616 33.8518 143.983 32.7852 141.916C31.7185 139.85 31.1852 137.516 31.1852 134.916C31.1852 132.283 31.7185 129.95 32.7852 127.916C33.8852 125.85 35.3518 124.233 37.1852 123.066C39.0518 121.9 41.1352 121.316 43.4352 121.316C44.8018 121.316 46.0518 121.516 47.1852 121.916C48.3185 122.316 49.3018 122.883 50.1352 123.616C51.0018 124.316 51.7018 125.133 52.2352 126.066C52.8018 127 53.1518 128 53.2852 129.066L52.1352 128.666V121.866H57.3352V148.116H52.1352V141.866L53.3352 141.516C53.1352 142.416 52.7185 143.3 52.0852 144.166C51.4852 145 50.7018 145.75 49.7352 146.416C48.8018 147.083 47.7518 147.616 46.5852 148.016C45.4518 148.416 44.2518 148.616 42.9852 148.616ZM44.3352 143.866C45.9018 143.866 47.2852 143.483 48.4852 142.716C49.6852 141.95 50.6185 140.9 51.2852 139.566C51.9852 138.2 52.3352 136.65 52.3352 134.916C52.3352 133.216 51.9852 131.7 51.2852 130.366C50.6185 129.033 49.6852 127.983 48.4852 127.216C47.2852 126.45 45.9018 126.066 44.3352 126.066C42.8018 126.066 41.4352 126.45 40.2352 127.216C39.0685 127.983 38.1352 129.033 37.4352 130.366C36.7685 131.7 36.4352 133.216 36.4352 134.916C36.4352 136.65 36.7685 138.2 37.4352 139.566C38.1352 140.9 39.0685 141.95 40.2352 142.716C41.4352 143.483 42.8018 143.866 44.3352 143.866ZM72.7758 148.616C70.5758 148.616 68.5924 148.233 66.8258 147.466C65.0591 146.7 63.5924 145.566 62.4258 144.066L65.9258 141.066C66.9258 142.233 68.0091 143.083 69.1758 143.616C70.3758 144.116 71.7258 144.366 73.2258 144.366C73.8258 144.366 74.3758 144.3 74.8758 144.166C75.4091 144 75.8591 143.766 76.2258 143.466C76.6258 143.166 76.9258 142.816 77.1258 142.416C77.3258 141.983 77.4258 141.516 77.4258 141.016C77.4258 140.15 77.1091 139.45 76.4758 138.916C76.1424 138.683 75.6091 138.433 74.8758 138.166C74.1758 137.866 73.2591 137.566 72.1258 137.266C70.1924 136.766 68.6091 136.2 67.3758 135.566C66.1424 134.933 65.1924 134.216 64.5258 133.416C64.0258 132.783 63.6591 132.1 63.4258 131.366C63.1924 130.6 63.0758 129.766 63.0758 128.866C63.0758 127.766 63.3091 126.766 63.7758 125.866C64.2758 124.933 64.9424 124.133 65.7758 123.466C66.6424 122.766 67.6424 122.233 68.7758 121.866C69.9424 121.5 71.1758 121.316 72.4758 121.316C73.7091 121.316 74.9258 121.483 76.1258 121.816C77.3591 122.15 78.4924 122.633 79.5258 123.266C80.5591 123.9 81.4258 124.65 82.1258 125.516L79.1758 128.766C78.5424 128.133 77.8424 127.583 77.0758 127.116C76.3424 126.616 75.5924 126.233 74.8258 125.966C74.0591 125.7 73.3591 125.566 72.7258 125.566C72.0258 125.566 71.3924 125.633 70.8258 125.766C70.2591 125.9 69.7758 126.1 69.3758 126.366C69.0091 126.633 68.7258 126.966 68.5258 127.366C68.3258 127.766 68.2258 128.216 68.2258 128.716C68.2591 129.15 68.3591 129.566 68.5258 129.966C68.7258 130.333 68.9924 130.65 69.3258 130.916C69.6924 131.183 70.2424 131.466 70.9758 131.766C71.7091 132.066 72.6424 132.35 73.7758 132.616C75.4424 133.05 76.8091 133.533 77.8758 134.066C78.9758 134.566 79.8424 135.15 80.4758 135.816C81.1424 136.45 81.6091 137.183 81.8758 138.016C82.1424 138.85 82.2758 139.783 82.2758 140.816C82.2758 142.316 81.8424 143.666 80.9758 144.866C80.1424 146.033 79.0091 146.95 77.5758 147.616C76.1424 148.283 74.5424 148.616 72.7758 148.616ZM99.2516 148.616C96.6849 148.616 94.3849 148.033 92.3516 146.866C90.3516 145.666 88.7682 144.05 87.6016 142.016C86.4349 139.95 85.8516 137.6 85.8516 134.966C85.8516 132.333 86.4349 130 87.6016 127.966C88.7682 125.9 90.3516 124.283 92.3516 123.116C94.3849 121.916 96.6849 121.316 99.2516 121.316C101.785 121.316 104.052 121.916 106.052 123.116C108.085 124.283 109.685 125.9 110.852 127.966C112.018 130 112.602 132.333 112.602 134.966C112.602 137.6 112.018 139.95 110.852 142.016C109.685 144.05 108.085 145.666 106.052 146.866C104.052 148.033 101.785 148.616 99.2516 148.616ZM99.2516 143.916C100.818 143.916 102.218 143.533 103.452 142.766C104.685 141.966 105.652 140.9 106.352 139.566C107.052 138.2 107.385 136.666 107.352 134.966C107.385 133.233 107.052 131.7 106.352 130.366C105.652 129 104.685 127.933 103.452 127.166C102.218 126.4 100.818 126.016 99.2516 126.016C97.6849 126.016 96.2682 126.416 95.0016 127.216C93.7682 127.983 92.8016 129.05 92.1016 130.416C91.4016 131.75 91.0682 133.266 91.1016 134.966C91.0682 136.666 91.4016 138.2 92.1016 139.566C92.8016 140.9 93.7682 141.966 95.0016 142.766C96.2682 143.533 97.6849 143.916 99.2516 143.916ZM117.713 148.116V121.866H122.863V127.266L121.963 127.866C122.297 126.7 122.947 125.633 123.913 124.666C124.88 123.666 126.03 122.866 127.363 122.266C128.697 121.633 130.063 121.316 131.463 121.316C133.463 121.316 135.13 121.716 136.463 122.516C137.797 123.283 138.797 124.466 139.463 126.066C140.13 127.666 140.463 129.683 140.463 132.116V148.116H135.313V132.466C135.313 130.966 135.113 129.733 134.713 128.766C134.313 127.766 133.697 127.05 132.863 126.616C132.03 126.15 130.997 125.95 129.763 126.016C128.763 126.016 127.847 126.183 127.013 126.516C126.18 126.816 125.447 127.25 124.813 127.816C124.213 128.383 123.73 129.05 123.363 129.816C123.03 130.55 122.863 131.35 122.863 132.216V148.116H120.313C119.88 148.116 119.447 148.116 119.013 148.116C118.58 148.116 118.147 148.116 117.713 148.116ZM161.763 148.116V113.116H167.163V148.116H161.763ZM164.163 133.216V128.016H182.213V133.216H164.163ZM164.163 118.316V113.116H184.463V118.316H164.163ZM201.109 148.616C198.542 148.616 196.242 148.033 194.209 146.866C192.209 145.666 190.626 144.05 189.459 142.016C188.292 139.95 187.709 137.6 187.709 134.966C187.709 132.333 188.292 130 189.459 127.966C190.626 125.9 192.209 124.283 194.209 123.116C196.242 121.916 198.542 121.316 201.109 121.316C203.642 121.316 205.909 121.916 207.909 123.116C209.942 124.283 211.542 125.9 212.709 127.966C213.876 130 214.459 132.333 214.459 134.966C214.459 137.6 213.876 139.95 212.709 142.016C211.542 144.05 209.942 145.666 207.909 146.866C205.909 148.033 203.642 148.616 201.109 148.616ZM201.109 143.916C202.676 143.916 204.076 143.533 205.309 142.766C206.542 141.966 207.509 140.9 208.209 139.566C208.909 138.2 209.242 136.666 209.209 134.966C209.242 133.233 208.909 131.7 208.209 130.366C207.509 129 206.542 127.933 205.309 127.166C204.076 126.4 202.676 126.016 201.109 126.016C199.542 126.016 198.126 126.416 196.859 127.216C195.626 127.983 194.659 129.05 193.959 130.416C193.259 131.75 192.926 133.266 192.959 134.966C192.926 136.666 193.259 138.2 193.959 139.566C194.659 140.9 195.626 141.966 196.859 142.766C198.126 143.533 199.542 143.916 201.109 143.916ZM228.321 148.616C226.121 148.616 224.137 148.233 222.371 147.466C220.604 146.7 219.137 145.566 217.971 144.066L221.471 141.066C222.471 142.233 223.554 143.083 224.721 143.616C225.921 144.116 227.271 144.366 228.771 144.366C229.371 144.366 229.921 144.3 230.421 144.166C230.954 144 231.404 143.766 231.771 143.466C232.171 143.166 232.471 142.816 232.671 142.416C232.871 141.983 232.971 141.516 232.971 141.016C232.971 140.15 232.654 139.45 232.021 138.916C231.687 138.683 231.154 138.433 230.421 138.166C229.721 137.866 228.804 137.566 227.671 137.266C225.737 136.766 224.154 136.2 222.921 135.566C221.687 134.933 220.737 134.216 220.071 133.416C219.571 132.783 219.204 132.1 218.971 131.366C218.737 130.6 218.621 129.766 218.621 128.866C218.621 127.766 218.854 126.766 219.321 125.866C219.821 124.933 220.487 124.133 221.321 123.466C222.187 122.766 223.187 122.233 224.321 121.866C225.487 121.5 226.721 121.316 228.021 121.316C229.254 121.316 230.471 121.483 231.671 121.816C232.904 122.15 234.037 122.633 235.071 123.266C236.104 123.9 236.971 124.65 237.671 125.516L234.721 128.766C234.087 128.133 233.387 127.583 232.621 127.116C231.887 126.616 231.137 126.233 230.371 125.966C229.604 125.7 228.904 125.566 228.271 125.566C227.571 125.566 226.937 125.633 226.371 125.766C225.804 125.9 225.321 126.1 224.921 126.366C224.554 126.633 224.271 126.966 224.071 127.366C223.871 127.766 223.771 128.216 223.771 128.716C223.804 129.15 223.904 129.566 224.071 129.966C224.271 130.333 224.537 130.65 224.871 130.916C225.237 131.183 225.787 131.466 226.521 131.766C227.254 132.066 228.187 132.35 229.321 132.616C230.987 133.05 232.354 133.533 233.421 134.066C234.521 134.566 235.387 135.15 236.021 135.816C236.687 136.45 237.154 137.183 237.421 138.016C237.687 138.85 237.821 139.783 237.821 140.816C237.821 142.316 237.387 143.666 236.521 144.866C235.687 146.033 234.554 146.95 233.121 147.616C231.687 148.283 230.087 148.616 228.321 148.616ZM246.246 148.116V115.166H251.396V148.116H246.246ZM240.796 126.866V121.866H257.496V126.866H240.796ZM273.692 148.616C270.992 148.616 268.592 148.05 266.492 146.916C264.425 145.75 262.792 144.166 261.592 142.166C260.425 140.166 259.842 137.866 259.842 135.266C259.842 133.2 260.175 131.316 260.842 129.616C261.508 127.916 262.425 126.45 263.592 125.216C264.792 123.95 266.208 122.983 267.842 122.316C269.508 121.616 271.308 121.266 273.242 121.266C274.942 121.266 276.525 121.6 277.992 122.266C279.458 122.9 280.725 123.783 281.792 124.916C282.892 126.05 283.725 127.4 284.292 128.966C284.892 130.5 285.175 132.183 285.142 134.016L285.092 136.216H263.642L262.492 132.116H280.642L279.892 132.966V131.766C279.792 130.666 279.425 129.683 278.792 128.816C278.158 127.95 277.358 127.266 276.392 126.766C275.425 126.266 274.375 126.016 273.242 126.016C271.442 126.016 269.925 126.366 268.692 127.066C267.458 127.733 266.525 128.733 265.892 130.066C265.258 131.366 264.942 132.983 264.942 134.916C264.942 136.75 265.325 138.35 266.092 139.716C266.858 141.05 267.942 142.083 269.342 142.816C270.742 143.55 272.358 143.916 274.192 143.916C275.492 143.916 276.692 143.7 277.792 143.266C278.925 142.833 280.142 142.05 281.442 140.916L284.042 144.566C283.242 145.366 282.258 146.066 281.092 146.666C279.958 147.266 278.742 147.75 277.442 148.116C276.175 148.45 274.925 148.616 273.692 148.616ZM290.239 148.116V121.866H295.439V130.116L294.939 128.116C295.305 126.85 295.922 125.7 296.789 124.666C297.689 123.633 298.705 122.816 299.839 122.216C301.005 121.616 302.205 121.316 303.439 121.316C304.005 121.316 304.539 121.366 305.039 121.466C305.572 121.566 305.989 121.683 306.289 121.816L304.939 127.416C304.539 127.25 304.089 127.116 303.589 127.016C303.122 126.883 302.655 126.816 302.189 126.816C301.289 126.816 300.422 127 299.589 127.366C298.789 127.7 298.072 128.183 297.439 128.816C296.839 129.416 296.355 130.133 295.989 130.966C295.622 131.766 295.439 132.65 295.439 133.616V148.116H290.239Z" fill="url(#paint1_linear_315_170)"/>
<path d="M280.184 194.057V166.057H297.824V170.217H284.504V189.897H297.824V194.057H280.184ZM282.144 181.777V177.617H295.624V181.777H282.144ZM308.474 194.057L301.314 173.057L305.474 173.017L310.594 188.737L309.674 188.657L315.234 176.377H317.714L323.314 188.697L322.234 188.777L327.394 173.057H331.554L324.474 194.057H321.634L315.794 180.697L316.714 180.817L311.274 194.057H308.474ZM344.121 194.457C341.961 194.457 340.041 194.004 338.361 193.097C336.707 192.164 335.401 190.897 334.441 189.297C333.507 187.697 333.041 185.857 333.041 183.777C333.041 182.124 333.307 180.617 333.841 179.257C334.374 177.897 335.107 176.724 336.041 175.737C337.001 174.724 338.134 173.95 339.441 173.417C340.774 172.857 342.214 172.577 343.761 172.577C345.121 172.577 346.387 172.844 347.561 173.377C348.734 173.884 349.747 174.59 350.601 175.497C351.481 176.404 352.147 177.484 352.601 178.737C353.081 179.964 353.307 181.31 353.281 182.777L353.241 184.537H336.081L335.161 181.257H349.681L349.081 181.937V180.977C349.001 180.097 348.707 179.31 348.201 178.617C347.694 177.924 347.054 177.377 346.281 176.977C345.507 176.577 344.667 176.377 343.761 176.377C342.321 176.377 341.107 176.657 340.121 177.217C339.134 177.75 338.387 178.55 337.881 179.617C337.374 180.657 337.121 181.95 337.121 183.497C337.121 184.964 337.427 186.244 338.041 187.337C338.654 188.404 339.521 189.23 340.641 189.817C341.761 190.404 343.054 190.697 344.521 190.697C345.561 190.697 346.521 190.524 347.401 190.177C348.307 189.83 349.281 189.204 350.321 188.297L352.401 191.217C351.761 191.857 350.974 192.417 350.041 192.897C349.134 193.377 348.161 193.764 347.121 194.057C346.107 194.324 345.107 194.457 344.121 194.457ZM357.358 194.057V173.057H361.478V177.377L360.758 177.857C361.025 176.924 361.545 176.07 362.318 175.297C363.091 174.497 364.011 173.857 365.078 173.377C366.145 172.87 367.238 172.617 368.358 172.617C369.958 172.617 371.291 172.937 372.358 173.577C373.425 174.19 374.225 175.137 374.758 176.417C375.291 177.697 375.558 179.31 375.558 181.257V194.057H371.438V181.537C371.438 180.337 371.278 179.35 370.958 178.577C370.638 177.777 370.145 177.204 369.478 176.857C368.811 176.484 367.985 176.324 366.998 176.377C366.198 176.377 365.465 176.51 364.798 176.777C364.131 177.017 363.545 177.364 363.038 177.817C362.558 178.27 362.171 178.804 361.878 179.417C361.611 180.004 361.478 180.644 361.478 181.337V194.057H359.438C359.091 194.057 358.745 194.057 358.398 194.057C358.051 194.057 357.705 194.057 357.358 194.057ZM392.598 194.057V166.057H396.838L407.038 182.657L404.998 182.617L415.318 166.057H419.318V194.057H414.998V182.577C414.998 180.177 415.051 178.017 415.158 176.097C415.291 174.177 415.505 172.27 415.798 170.377L416.358 171.857L407.198 186.017H404.558L395.678 172.017L396.118 170.377C396.411 172.164 396.611 174.004 396.718 175.897C396.851 177.764 396.918 179.99 396.918 182.577V194.057H392.598ZM433.808 194.457C432.075 194.457 430.488 193.977 429.048 193.017C427.635 192.057 426.502 190.75 425.648 189.097C424.795 187.444 424.368 185.577 424.368 183.497C424.368 181.39 424.795 179.524 425.648 177.897C426.528 176.244 427.702 174.95 429.168 174.017C430.662 173.084 432.328 172.617 434.168 172.617C435.262 172.617 436.262 172.777 437.168 173.097C438.075 173.417 438.862 173.87 439.528 174.457C440.222 175.017 440.782 175.67 441.208 176.417C441.662 177.164 441.942 177.964 442.048 178.817L441.128 178.497V173.057H445.288V194.057H441.128V189.057L442.088 188.777C441.928 189.497 441.595 190.204 441.088 190.897C440.608 191.564 439.982 192.164 439.208 192.697C438.462 193.23 437.622 193.657 436.688 193.977C435.782 194.297 434.822 194.457 433.808 194.457ZM434.888 190.657C436.142 190.657 437.248 190.35 438.208 189.737C439.168 189.124 439.915 188.284 440.448 187.217C441.008 186.124 441.288 184.884 441.288 183.497C441.288 182.137 441.008 180.924 440.448 179.857C439.915 178.79 439.168 177.95 438.208 177.337C437.248 176.724 436.142 176.417 434.888 176.417C433.662 176.417 432.568 176.724 431.608 177.337C430.675 177.95 429.928 178.79 429.368 179.857C428.835 180.924 428.568 182.137 428.568 183.497C428.568 184.884 428.835 186.124 429.368 187.217C429.928 188.284 430.675 189.124 431.608 189.737C432.568 190.35 433.662 190.657 434.888 190.657ZM459.561 194.457C457.614 194.457 455.868 193.977 454.321 193.017C452.801 192.057 451.588 190.75 450.681 189.097C449.801 187.444 449.361 185.59 449.361 183.537C449.361 181.484 449.801 179.63 450.681 177.977C451.588 176.324 452.801 175.017 454.321 174.057C455.868 173.097 457.614 172.617 459.561 172.617C461.428 172.617 463.121 173.004 464.641 173.777C466.188 174.524 467.361 175.55 468.161 176.857L465.881 179.657C465.454 179.044 464.908 178.484 464.241 177.977C463.574 177.47 462.868 177.07 462.121 176.777C461.374 176.484 460.654 176.337 459.961 176.337C458.681 176.337 457.534 176.657 456.521 177.297C455.534 177.91 454.748 178.764 454.161 179.857C453.574 180.95 453.281 182.177 453.281 183.537C453.281 184.897 453.588 186.124 454.201 187.217C454.814 188.284 455.628 189.137 456.641 189.777C457.654 190.417 458.774 190.737 460.001 190.737C460.721 190.737 461.414 190.617 462.081 190.377C462.774 190.137 463.441 189.777 464.081 189.297C464.721 188.817 465.321 188.23 465.881 187.537L468.161 190.337C467.308 191.537 466.081 192.524 464.481 193.297C462.908 194.07 461.268 194.457 459.561 194.457ZM472.687 194.057V166.057H483.647C485.647 166.057 487.447 166.39 489.047 167.057C490.674 167.724 492.061 168.684 493.207 169.937C494.354 171.19 495.234 172.67 495.847 174.377C496.461 176.084 496.767 177.977 496.767 180.057C496.767 182.137 496.461 184.044 495.847 185.777C495.234 187.484 494.354 188.964 493.207 190.217C492.087 191.444 490.714 192.39 489.087 193.057C487.461 193.724 485.647 194.057 483.647 194.057H472.687ZM477.007 190.337L476.887 189.897H483.447C484.861 189.897 486.114 189.67 487.207 189.217C488.327 188.764 489.261 188.124 490.007 187.297C490.781 186.444 491.367 185.404 491.767 184.177C492.167 182.95 492.367 181.577 492.367 180.057C492.367 178.537 492.167 177.177 491.767 175.977C491.367 174.75 490.781 173.71 490.007 172.857C489.234 172.004 488.301 171.35 487.207 170.897C486.114 170.444 484.861 170.217 483.447 170.217H476.767L477.007 169.857V190.337ZM510.609 194.457C508.556 194.457 506.716 193.99 505.089 193.057C503.489 192.097 502.222 190.804 501.289 189.177C500.356 187.524 499.889 185.644 499.889 183.537C499.889 181.43 500.356 179.564 501.289 177.937C502.222 176.284 503.489 174.99 505.089 174.057C506.716 173.097 508.556 172.617 510.609 172.617C512.636 172.617 514.449 173.097 516.049 174.057C517.676 174.99 518.956 176.284 519.889 177.937C520.822 179.564 521.289 181.43 521.289 183.537C521.289 185.644 520.822 187.524 519.889 189.177C518.956 190.804 517.676 192.097 516.049 193.057C514.449 193.99 512.636 194.457 510.609 194.457ZM510.609 190.697C511.862 190.697 512.982 190.39 513.969 189.777C514.956 189.137 515.729 188.284 516.289 187.217C516.849 186.124 517.116 184.897 517.089 183.537C517.116 182.15 516.849 180.924 516.289 179.857C515.729 178.764 514.956 177.91 513.969 177.297C512.982 176.684 511.862 176.377 510.609 176.377C509.356 176.377 508.222 176.697 507.209 177.337C506.222 177.95 505.449 178.804 504.889 179.897C504.329 180.964 504.062 182.177 504.089 183.537C504.062 184.897 504.329 186.124 504.889 187.217C505.449 188.284 506.222 189.137 507.209 189.777C508.222 190.39 509.356 190.697 510.609 190.697ZM525.378 194.057V173.057H529.498V177.377L528.778 177.857C529.045 176.924 529.565 176.07 530.338 175.297C531.112 174.497 532.032 173.857 533.098 173.377C534.165 172.87 535.258 172.617 536.378 172.617C537.978 172.617 539.312 172.937 540.378 173.577C541.445 174.19 542.245 175.137 542.778 176.417C543.312 177.697 543.578 179.31 543.578 181.257V194.057H539.458V181.537C539.458 180.337 539.298 179.35 538.978 178.577C538.658 177.777 538.165 177.204 537.498 176.857C536.832 176.484 536.005 176.324 535.018 176.377C534.218 176.377 533.485 176.51 532.818 176.777C532.152 177.017 531.565 177.364 531.058 177.817C530.578 178.27 530.192 178.804 529.898 179.417C529.632 180.004 529.498 180.644 529.498 181.337V194.057H527.458C527.112 194.057 526.765 194.057 526.418 194.057C526.072 194.057 525.725 194.057 525.378 194.057ZM556.848 194.457C555.114 194.457 553.528 193.977 552.088 193.017C550.674 192.057 549.541 190.75 548.688 189.097C547.834 187.444 547.408 185.577 547.408 183.497C547.408 181.39 547.834 179.524 548.688 177.897C549.568 176.244 550.741 174.95 552.208 174.017C553.701 173.084 555.368 172.617 557.208 172.617C558.301 172.617 559.301 172.777 560.208 173.097C561.114 173.417 561.901 173.87 562.568 174.457C563.261 175.017 563.821 175.67 564.248 176.417C564.701 177.164 564.981 177.964 565.088 178.817L564.168 178.497V173.057H568.328V194.057H564.168V189.057L565.128 188.777C564.968 189.497 564.634 190.204 564.128 190.897C563.648 191.564 563.021 192.164 562.248 192.697C561.501 193.23 560.661 193.657 559.728 193.977C558.821 194.297 557.861 194.457 556.848 194.457ZM557.928 190.657C559.181 190.657 560.288 190.35 561.248 189.737C562.208 189.124 562.954 188.284 563.488 187.217C564.048 186.124 564.328 184.884 564.328 183.497C564.328 182.137 564.048 180.924 563.488 179.857C562.954 178.79 562.208 177.95 561.248 177.337C560.288 176.724 559.181 176.417 557.928 176.417C556.701 176.417 555.608 176.724 554.648 177.337C553.714 177.95 552.968 178.79 552.408 179.857C551.874 180.924 551.608 182.137 551.608 183.497C551.608 184.884 551.874 186.124 552.408 187.217C552.968 188.284 553.714 189.124 554.648 189.737C555.608 190.35 556.701 190.657 557.928 190.657ZM573.76 194.057V164.457H577.88V194.057H573.76ZM591.688 194.457C589.768 194.457 588.048 193.99 586.528 193.057C585.035 192.097 583.848 190.804 582.968 189.177C582.088 187.524 581.648 185.644 581.648 183.537C581.648 181.43 582.075 179.564 582.928 177.937C583.808 176.284 584.995 174.99 586.488 174.057C587.982 173.097 589.675 172.617 591.568 172.617C592.608 172.617 593.608 172.79 594.568 173.137C595.555 173.457 596.435 173.91 597.208 174.497C597.982 175.057 598.582 175.684 599.008 176.377C599.462 177.044 599.688 177.724 599.688 178.417L598.488 178.497V164.457H602.608V194.057H598.488V189.057H599.288C599.288 189.697 599.075 190.337 598.648 190.977C598.222 191.59 597.648 192.164 596.928 192.697C596.235 193.23 595.422 193.657 594.488 193.977C593.582 194.297 592.648 194.457 591.688 194.457ZM592.248 190.897C593.502 190.897 594.608 190.577 595.568 189.937C596.528 189.297 597.275 188.43 597.808 187.337C598.368 186.217 598.648 184.95 598.648 183.537C598.648 182.124 598.368 180.87 597.808 179.777C597.275 178.657 596.528 177.777 595.568 177.137C594.608 176.497 593.502 176.177 592.248 176.177C590.995 176.177 589.888 176.497 588.928 177.137C587.968 177.777 587.208 178.657 586.648 179.777C586.115 180.87 585.848 182.124 585.848 183.537C585.848 184.95 586.115 186.217 586.648 187.337C587.208 188.43 587.968 189.297 588.928 189.937C589.888 190.577 590.995 190.897 592.248 190.897Z" fill="url(#paint2_linear_315_170)"/>
<path d="M61.807 266.804C59.147 266.804 56.6736 266.454 54.387 265.754C52.147 265.054 50.0936 264.004 48.227 262.604C46.407 261.157 44.7736 259.384 43.327 257.284L48.507 251.334C50.7936 254.6 52.987 256.864 55.087 258.124C57.187 259.384 59.6836 260.014 62.577 260.014C64.3503 260.014 65.9603 259.734 67.407 259.174C68.8536 258.614 69.997 257.844 70.837 256.864C71.677 255.884 72.097 254.764 72.097 253.504C72.097 252.664 71.957 251.87 71.677 251.124C71.397 250.377 70.9536 249.7 70.347 249.094C69.787 248.487 69.0403 247.927 68.107 247.414C67.2203 246.9 66.1703 246.457 64.957 246.084C63.7436 245.664 62.3436 245.314 60.757 245.034C58.237 244.52 56.0436 243.844 54.177 243.004C52.3103 242.164 50.747 241.114 49.487 239.854C48.227 238.594 47.2936 237.17 46.687 235.584C46.0803 233.95 45.777 232.13 45.777 230.124C45.777 228.164 46.197 226.344 47.037 224.664C47.9236 222.984 49.1136 221.537 50.607 220.324C52.147 219.064 53.9436 218.107 55.997 217.454C58.0503 216.754 60.267 216.404 62.647 216.404C65.167 216.404 67.477 216.73 69.577 217.384C71.677 218.037 73.5436 219.017 75.1769 220.324C76.8103 221.584 78.1636 223.147 79.237 225.014L73.917 230.264C72.9836 228.724 71.9336 227.44 70.767 226.414C69.6003 225.34 68.317 224.547 66.917 224.034C65.517 223.474 64.0236 223.194 62.437 223.194C60.617 223.194 59.0303 223.474 57.677 224.034C56.3236 224.594 55.2503 225.387 54.457 226.414C53.7103 227.394 53.337 228.56 53.337 229.914C53.337 230.894 53.5236 231.804 53.897 232.644C54.2703 233.437 54.8303 234.16 55.577 234.814C56.3703 235.42 57.4203 235.98 58.727 236.494C60.0336 236.96 61.597 237.38 63.417 237.754C65.9836 238.314 68.2703 239.037 70.277 239.924C72.2836 240.764 73.987 241.767 75.387 242.934C76.787 244.1 77.837 245.407 78.537 246.854C79.2836 248.3 79.657 249.864 79.657 251.544C79.657 254.67 78.9336 257.377 77.487 259.664C76.0403 261.95 73.987 263.724 71.327 264.984C68.667 266.197 65.4936 266.804 61.807 266.804ZM104.999 266.804C101.219 266.804 97.8586 266.01 94.9186 264.424C92.0253 262.79 89.7386 260.574 88.0586 257.774C86.4253 254.974 85.6086 251.754 85.6086 248.114C85.6086 245.22 86.0753 242.584 87.0086 240.204C87.9419 237.824 89.2253 235.77 90.8586 234.044C92.5386 232.27 94.5219 230.917 96.8086 229.984C99.1419 229.004 101.662 228.514 104.369 228.514C106.749 228.514 108.965 228.98 111.019 229.914C113.072 230.8 114.845 232.037 116.339 233.624C117.879 235.21 119.045 237.1 119.839 239.294C120.679 241.44 121.075 243.797 121.029 246.364L120.959 249.444H90.9286L89.3186 243.704H114.729L113.679 244.894V243.214C113.539 241.674 113.025 240.297 112.139 239.084C111.252 237.87 110.132 236.914 108.779 236.214C107.425 235.514 105.955 235.164 104.369 235.164C101.849 235.164 99.7253 235.654 97.9986 236.634C96.2719 237.567 94.9653 238.967 94.0786 240.834C93.1919 242.654 92.7486 244.917 92.7486 247.624C92.7486 250.19 93.2853 252.43 94.3586 254.344C95.4319 256.21 96.9486 257.657 98.9086 258.684C100.869 259.71 103.132 260.224 105.699 260.224C107.519 260.224 109.199 259.92 110.739 259.314C112.325 258.707 114.029 257.61 115.849 256.024L119.489 261.134C118.369 262.254 116.992 263.234 115.359 264.074C113.772 264.914 112.069 265.59 110.249 266.104C108.475 266.57 106.725 266.804 104.999 266.804ZM142.304 266.804C139.271 266.804 136.494 265.964 133.974 264.284C131.501 262.604 129.518 260.317 128.024 257.424C126.531 254.53 125.784 251.264 125.784 247.624C125.784 243.937 126.531 240.67 128.024 237.824C129.564 234.93 131.618 232.667 134.184 231.034C136.798 229.4 139.714 228.584 142.934 228.584C144.848 228.584 146.598 228.864 148.184 229.424C149.771 229.984 151.148 230.777 152.314 231.804C153.528 232.784 154.508 233.927 155.254 235.234C156.048 236.54 156.538 237.94 156.724 239.434L155.114 238.874V229.354H162.394V266.104H155.114V257.354L156.794 256.864C156.514 258.124 155.931 259.36 155.044 260.574C154.204 261.74 153.108 262.79 151.754 263.724C150.448 264.657 148.978 265.404 147.344 265.964C145.758 266.524 144.078 266.804 142.304 266.804ZM144.194 260.154C146.388 260.154 148.324 259.617 150.004 258.544C151.684 257.47 152.991 256 153.924 254.134C154.904 252.22 155.394 250.05 155.394 247.624C155.394 245.244 154.904 243.12 153.924 241.254C152.991 239.387 151.684 237.917 150.004 236.844C148.324 235.77 146.388 235.234 144.194 235.234C142.048 235.234 140.134 235.77 138.454 236.844C136.821 237.917 135.514 239.387 134.534 241.254C133.601 243.12 133.134 245.244 133.134 247.624C133.134 250.05 133.601 252.22 134.534 254.134C135.514 256 136.821 257.47 138.454 258.544C140.134 259.617 142.048 260.154 144.194 260.154ZM171.761 266.104V229.354H178.971V236.914L177.711 237.754C178.178 236.12 179.088 234.627 180.441 233.274C181.794 231.874 183.404 230.754 185.271 229.914C187.138 229.027 189.051 228.584 191.011 228.584C193.811 228.584 196.144 229.144 198.011 230.264C199.878 231.337 201.278 232.994 202.211 235.234C203.144 237.474 203.611 240.297 203.611 243.704V266.104H196.401V244.194C196.401 242.094 196.121 240.367 195.561 239.014C195.001 237.614 194.138 236.61 192.971 236.004C191.804 235.35 190.358 235.07 188.631 235.164C187.231 235.164 185.948 235.397 184.781 235.864C183.614 236.284 182.588 236.89 181.701 237.684C180.861 238.477 180.184 239.41 179.671 240.484C179.204 241.51 178.971 242.63 178.971 243.844V266.104H175.401C174.794 266.104 174.188 266.104 173.581 266.104C172.974 266.104 172.368 266.104 171.761 266.104ZM248.551 266.804C245.891 266.804 243.418 266.454 241.131 265.754C238.891 265.054 236.838 264.004 234.971 262.604C233.151 261.157 231.518 259.384 230.071 257.284L235.251 251.334C237.538 254.6 239.731 256.864 241.831 258.124C243.931 259.384 246.428 260.014 249.321 260.014C251.094 260.014 252.704 259.734 254.151 259.174C255.598 258.614 256.741 257.844 257.581 256.864C258.421 255.884 258.841 254.764 258.841 253.504C258.841 252.664 258.701 251.87 258.421 251.124C258.141 250.377 257.698 249.7 257.091 249.094C256.531 248.487 255.784 247.927 254.851 247.414C253.964 246.9 252.914 246.457 251.701 246.084C250.488 245.664 249.088 245.314 247.501 245.034C244.981 244.52 242.788 243.844 240.921 243.004C239.054 242.164 237.491 241.114 236.231 239.854C234.971 238.594 234.038 237.17 233.431 235.584C232.824 233.95 232.521 232.13 232.521 230.124C232.521 228.164 232.941 226.344 233.781 224.664C234.668 222.984 235.858 221.537 237.351 220.324C238.891 219.064 240.688 218.107 242.741 217.454C244.794 216.754 247.011 216.404 249.391 216.404C251.911 216.404 254.221 216.73 256.321 217.384C258.421 218.037 260.288 219.017 261.921 220.324C263.554 221.584 264.908 223.147 265.981 225.014L260.661 230.264C259.728 228.724 258.678 227.44 257.511 226.414C256.344 225.34 255.061 224.547 253.661 224.034C252.261 223.474 250.768 223.194 249.181 223.194C247.361 223.194 245.774 223.474 244.421 224.034C243.068 224.594 241.994 225.387 241.201 226.414C240.454 227.394 240.081 228.56 240.081 229.914C240.081 230.894 240.268 231.804 240.641 232.644C241.014 233.437 241.574 234.16 242.321 234.814C243.114 235.42 244.164 235.98 245.471 236.494C246.778 236.96 248.341 237.38 250.161 237.754C252.728 238.314 255.014 239.037 257.021 239.924C259.028 240.764 260.731 241.767 262.131 242.934C263.531 244.1 264.581 245.407 265.281 246.854C266.028 248.3 266.401 249.864 266.401 251.544C266.401 254.67 265.678 257.377 264.231 259.664C262.784 261.95 260.731 263.724 258.071 264.984C255.411 266.197 252.238 266.804 248.551 266.804ZM274.593 281.504V229.354H281.873V237.754L280.753 237.124C281.033 235.724 281.826 234.394 283.133 233.134C284.439 231.827 286.026 230.777 287.893 229.984C289.806 229.144 291.766 228.724 293.773 228.724C297.086 228.724 300.026 229.54 302.593 231.174C305.159 232.807 307.189 235.047 308.683 237.894C310.176 240.74 310.923 244.007 310.923 247.694C310.923 251.334 310.176 254.6 308.683 257.494C307.236 260.34 305.229 262.604 302.663 264.284C300.096 265.917 297.203 266.734 293.983 266.734C291.836 266.734 289.759 266.314 287.753 265.474C285.746 264.587 284.043 263.467 282.643 262.114C281.243 260.76 280.379 259.36 280.053 257.914L281.873 256.934V281.504H274.593ZM292.793 260.084C294.939 260.084 296.853 259.547 298.533 258.474C300.213 257.4 301.543 255.93 302.523 254.064C303.503 252.197 303.993 250.074 303.993 247.694C303.993 245.314 303.503 243.214 302.523 241.394C301.589 239.527 300.283 238.057 298.603 236.984C296.923 235.91 294.986 235.374 292.793 235.374C290.599 235.374 288.663 235.91 286.983 236.984C285.303 238.01 283.973 239.457 282.993 241.324C282.013 243.19 281.523 245.314 281.523 247.694C281.523 250.074 282.013 252.197 282.993 254.064C283.973 255.93 285.303 257.4 286.983 258.474C288.663 259.547 290.599 260.084 292.793 260.084ZM335.203 266.804C331.423 266.804 328.063 266.01 325.123 264.424C322.23 262.79 319.943 260.574 318.263 257.774C316.63 254.974 315.813 251.754 315.813 248.114C315.813 245.22 316.28 242.584 317.213 240.204C318.146 237.824 319.43 235.77 321.063 234.044C322.743 232.27 324.726 230.917 327.013 229.984C329.346 229.004 331.866 228.514 334.573 228.514C336.953 228.514 339.17 228.98 341.223 229.914C343.276 230.8 345.05 232.037 346.543 233.624C348.083 235.21 349.25 237.1 350.043 239.294C350.883 241.44 351.28 243.797 351.233 246.364L351.163 249.444H321.133L319.523 243.704H344.933L343.883 244.894V243.214C343.743 241.674 343.23 240.297 342.343 239.084C341.456 237.87 340.336 236.914 338.983 236.214C337.63 235.514 336.16 235.164 334.573 235.164C332.053 235.164 329.93 235.654 328.203 236.634C326.476 237.567 325.17 238.967 324.283 240.834C323.396 242.654 322.953 244.917 322.953 247.624C322.953 250.19 323.49 252.43 324.563 254.344C325.636 256.21 327.153 257.657 329.113 258.684C331.073 259.71 333.336 260.224 335.903 260.224C337.723 260.224 339.403 259.92 340.943 259.314C342.53 258.707 344.233 257.61 346.053 256.024L349.693 261.134C348.573 262.254 347.196 263.234 345.563 264.074C343.976 264.914 342.273 265.59 340.453 266.104C338.68 266.57 336.93 266.804 335.203 266.804ZM356.828 266.104V260.084L375.798 234.744V235.584H356.828V229.354H383.638V235.234L364.948 260.224L364.668 259.874H384.058V266.104H356.828ZM392.765 266.104V229.354H399.975V266.104H392.765ZM396.265 221.234C394.725 221.234 393.535 220.837 392.695 220.044C391.855 219.25 391.435 218.13 391.435 216.684C391.435 215.33 391.855 214.234 392.695 213.394C393.581 212.554 394.771 212.134 396.265 212.134C397.805 212.134 398.995 212.53 399.835 213.324C400.675 214.117 401.095 215.237 401.095 216.684C401.095 218.037 400.651 219.134 399.765 219.974C398.925 220.814 397.758 221.234 396.265 221.234ZM424.497 266.804C421.464 266.804 418.687 265.964 416.167 264.284C413.694 262.604 411.711 260.317 410.217 257.424C408.724 254.53 407.977 251.264 407.977 247.624C407.977 243.937 408.724 240.67 410.217 237.824C411.757 234.93 413.811 232.667 416.377 231.034C418.991 229.4 421.907 228.584 425.127 228.584C427.041 228.584 428.791 228.864 430.377 229.424C431.964 229.984 433.341 230.777 434.507 231.804C435.721 232.784 436.701 233.927 437.447 235.234C438.241 236.54 438.731 237.94 438.917 239.434L437.307 238.874V229.354H444.587V266.104H437.307V257.354L438.987 256.864C438.707 258.124 438.124 259.36 437.237 260.574C436.397 261.74 435.301 262.79 433.947 263.724C432.641 264.657 431.171 265.404 429.537 265.964C427.951 266.524 426.271 266.804 424.497 266.804ZM426.387 260.154C428.581 260.154 430.517 259.617 432.197 258.544C433.877 257.47 435.184 256 436.117 254.134C437.097 252.22 437.587 250.05 437.587 247.624C437.587 245.244 437.097 243.12 436.117 241.254C435.184 239.387 433.877 237.917 432.197 236.844C430.517 235.77 428.581 235.234 426.387 235.234C424.241 235.234 422.327 235.77 420.647 236.844C419.014 237.917 417.707 239.387 416.727 241.254C415.794 243.12 415.327 245.244 415.327 247.624C415.327 250.05 415.794 252.22 416.727 254.134C417.707 256 419.014 257.47 420.647 258.544C422.327 259.617 424.241 260.154 426.387 260.154ZM454.094 266.104V214.304H461.304V266.104H454.094ZM487.289 266.804C483.509 266.804 480.149 266.01 477.209 264.424C474.315 262.79 472.029 260.574 470.349 257.774C468.715 254.974 467.899 251.754 467.899 248.114C467.899 245.22 468.365 242.584 469.299 240.204C470.232 237.824 471.515 235.77 473.149 234.044C474.829 232.27 476.812 230.917 479.099 229.984C481.432 229.004 483.952 228.514 486.659 228.514C489.039 228.514 491.255 228.98 493.309 229.914C495.362 230.8 497.135 232.037 498.629 233.624C500.169 235.21 501.335 237.1 502.129 239.294C502.969 241.44 503.365 243.797 503.319 246.364L503.249 249.444H473.219L471.609 243.704H497.019L495.969 244.894V243.214C495.829 241.674 495.315 240.297 494.429 239.084C493.542 237.87 492.422 236.914 491.069 236.214C489.715 235.514 488.245 235.164 486.659 235.164C484.139 235.164 482.015 235.654 480.289 236.634C478.562 237.567 477.255 238.967 476.369 240.834C475.482 242.654 475.039 244.917 475.039 247.624C475.039 250.19 475.575 252.43 476.649 254.344C477.722 256.21 479.239 257.657 481.199 258.684C483.159 259.71 485.422 260.224 487.989 260.224C489.809 260.224 491.489 259.92 493.029 259.314C494.615 258.707 496.319 257.61 498.139 256.024L501.779 261.134C500.659 262.254 499.282 263.234 497.649 264.074C496.062 264.914 494.359 265.59 492.539 266.104C490.765 266.57 489.015 266.804 487.289 266.804Z" fill="url(#paint3_linear_315_170)"/>
<path d="M114.764 326.782C113.06 326.782 111.497 326.478 110.074 325.872C108.65 325.265 107.414 324.402 106.364 323.282C105.314 322.138 104.497 320.797 103.914 319.257C103.354 317.717 103.074 316.025 103.074 314.182C103.074 312.432 103.377 310.81 103.984 309.317C104.614 307.8 105.477 306.47 106.574 305.327C107.67 304.183 108.942 303.297 110.389 302.667C111.835 302.037 113.399 301.722 115.079 301.722C116.269 301.722 117.424 301.908 118.544 302.282C119.687 302.632 120.714 303.133 121.624 303.787C122.557 304.417 123.315 305.14 123.899 305.957L121.379 308.582C120.702 307.905 120.014 307.345 119.314 306.902C118.637 306.435 117.937 306.085 117.214 305.852C116.514 305.618 115.802 305.502 115.079 305.502C113.935 305.502 112.862 305.723 111.859 306.167C110.879 306.587 110.015 307.182 109.269 307.952C108.545 308.722 107.974 309.643 107.554 310.717C107.134 311.767 106.924 312.922 106.924 314.182C106.924 315.512 107.122 316.725 107.519 317.822C107.939 318.895 108.522 319.817 109.269 320.587C110.015 321.357 110.902 321.952 111.929 322.372C112.979 322.768 114.134 322.967 115.394 322.967C116.164 322.967 116.922 322.862 117.669 322.652C118.415 322.442 119.115 322.138 119.769 321.742C120.422 321.345 121.017 320.878 121.554 320.342L123.444 323.422C122.907 324.052 122.172 324.623 121.239 325.137C120.329 325.65 119.302 326.058 118.159 326.362C117.039 326.642 115.907 326.782 114.764 326.782ZM127.319 326.432V300.532H130.924V311.837L130.294 312.257C130.527 311.44 130.982 310.693 131.659 310.017C132.335 309.317 133.14 308.757 134.074 308.337C135.007 307.893 135.964 307.672 136.944 307.672C138.344 307.672 139.51 307.952 140.444 308.512C141.377 309.048 142.077 309.877 142.544 310.997C143.01 312.117 143.244 313.528 143.244 315.232V326.432H139.639V315.477C139.639 314.427 139.499 313.563 139.219 312.887C138.939 312.187 138.507 311.685 137.924 311.382C137.34 311.055 136.617 310.915 135.754 310.962C135.054 310.962 134.412 311.078 133.829 311.312C133.245 311.522 132.732 311.825 132.289 312.222C131.869 312.618 131.53 313.085 131.274 313.622C131.04 314.135 130.924 314.695 130.924 315.302V326.432H129.139C128.835 326.432 128.532 326.432 128.229 326.432C127.925 326.432 127.622 326.432 127.319 326.432ZM147.784 326.432V308.057H151.424V313.832L151.074 312.432C151.331 311.545 151.762 310.74 152.369 310.017C152.999 309.293 153.711 308.722 154.504 308.302C155.321 307.882 156.161 307.672 157.024 307.672C157.421 307.672 157.794 307.707 158.144 307.777C158.517 307.847 158.809 307.928 159.019 308.022L158.074 311.942C157.794 311.825 157.479 311.732 157.129 311.662C156.802 311.568 156.476 311.522 156.149 311.522C155.519 311.522 154.912 311.65 154.329 311.907C153.769 312.14 153.267 312.478 152.824 312.922C152.404 313.342 152.066 313.843 151.809 314.427C151.552 314.987 151.424 315.605 151.424 316.282V326.432H147.784ZM162.145 326.432V308.057H165.75V326.432H162.145ZM163.895 303.997C163.125 303.997 162.53 303.798 162.11 303.402C161.69 303.005 161.48 302.445 161.48 301.722C161.48 301.045 161.69 300.497 162.11 300.077C162.554 299.657 163.149 299.447 163.895 299.447C164.665 299.447 165.26 299.645 165.68 300.042C166.1 300.438 166.31 300.998 166.31 301.722C166.31 302.398 166.089 302.947 165.645 303.367C165.225 303.787 164.642 303.997 163.895 303.997ZM177.066 326.782C175.526 326.782 174.138 326.513 172.901 325.977C171.665 325.44 170.638 324.647 169.821 323.597L172.271 321.497C172.971 322.313 173.73 322.908 174.546 323.282C175.386 323.632 176.331 323.807 177.381 323.807C177.801 323.807 178.186 323.76 178.536 323.667C178.91 323.55 179.225 323.387 179.481 323.177C179.761 322.967 179.971 322.722 180.111 322.442C180.251 322.138 180.321 321.812 180.321 321.462C180.321 320.855 180.1 320.365 179.656 319.992C179.423 319.828 179.05 319.653 178.536 319.467C178.046 319.257 177.405 319.047 176.611 318.837C175.258 318.487 174.15 318.09 173.286 317.647C172.423 317.203 171.758 316.702 171.291 316.142C170.941 315.698 170.685 315.22 170.521 314.707C170.358 314.17 170.276 313.587 170.276 312.957C170.276 312.187 170.44 311.487 170.766 310.857C171.116 310.203 171.583 309.643 172.166 309.177C172.773 308.687 173.473 308.313 174.266 308.057C175.083 307.8 175.946 307.672 176.856 307.672C177.72 307.672 178.571 307.788 179.411 308.022C180.275 308.255 181.068 308.593 181.791 309.037C182.515 309.48 183.121 310.005 183.611 310.612L181.546 312.887C181.103 312.443 180.613 312.058 180.076 311.732C179.563 311.382 179.038 311.113 178.501 310.927C177.965 310.74 177.475 310.647 177.031 310.647C176.541 310.647 176.098 310.693 175.701 310.787C175.305 310.88 174.966 311.02 174.686 311.207C174.43 311.393 174.231 311.627 174.091 311.907C173.951 312.187 173.881 312.502 173.881 312.852C173.905 313.155 173.975 313.447 174.091 313.727C174.231 313.983 174.418 314.205 174.651 314.392C174.908 314.578 175.293 314.777 175.806 314.987C176.32 315.197 176.973 315.395 177.766 315.582C178.933 315.885 179.89 316.223 180.636 316.597C181.406 316.947 182.013 317.355 182.456 317.822C182.923 318.265 183.25 318.778 183.436 319.362C183.623 319.945 183.716 320.598 183.716 321.322C183.716 322.372 183.413 323.317 182.806 324.157C182.223 324.973 181.43 325.615 180.426 326.082C179.423 326.548 178.303 326.782 177.066 326.782ZM189.614 326.432V303.367H193.219V326.432H189.614ZM185.799 311.557V308.057H197.489V311.557H185.799ZM208.511 326.782C206.714 326.782 205.104 326.373 203.681 325.557C202.281 324.717 201.173 323.585 200.356 322.162C199.539 320.715 199.131 319.07 199.131 317.227C199.131 315.383 199.539 313.75 200.356 312.327C201.173 310.88 202.281 309.748 203.681 308.932C205.104 308.092 206.714 307.672 208.511 307.672C210.284 307.672 211.871 308.092 213.271 308.932C214.694 309.748 215.814 310.88 216.631 312.327C217.448 313.75 217.856 315.383 217.856 317.227C217.856 319.07 217.448 320.715 216.631 322.162C215.814 323.585 214.694 324.717 213.271 325.557C211.871 326.373 210.284 326.782 208.511 326.782ZM208.511 323.492C209.608 323.492 210.588 323.223 211.451 322.687C212.314 322.127 212.991 321.38 213.481 320.447C213.971 319.49 214.204 318.417 214.181 317.227C214.204 316.013 213.971 314.94 213.481 314.007C212.991 313.05 212.314 312.303 211.451 311.767C210.588 311.23 209.608 310.962 208.511 310.962C207.414 310.962 206.423 311.242 205.536 311.802C204.673 312.338 203.996 313.085 203.506 314.042C203.016 314.975 202.783 316.037 202.806 317.227C202.783 318.417 203.016 319.49 203.506 320.447C203.996 321.38 204.673 322.127 205.536 322.687C206.423 323.223 207.414 323.492 208.511 323.492ZM221.434 334.132V308.057H225.074V312.257L224.514 311.942C224.654 311.242 225.051 310.577 225.704 309.947C226.358 309.293 227.151 308.768 228.084 308.372C229.041 307.952 230.021 307.742 231.024 307.742C232.681 307.742 234.151 308.15 235.434 308.967C236.718 309.783 237.733 310.903 238.479 312.327C239.226 313.75 239.599 315.383 239.599 317.227C239.599 319.047 239.226 320.68 238.479 322.127C237.756 323.55 236.753 324.682 235.469 325.522C234.186 326.338 232.739 326.747 231.129 326.747C230.056 326.747 229.018 326.537 228.014 326.117C227.011 325.673 226.159 325.113 225.459 324.437C224.759 323.76 224.328 323.06 224.164 322.337L225.074 321.847V334.132H221.434ZM230.534 323.422C231.608 323.422 232.564 323.153 233.404 322.617C234.244 322.08 234.909 321.345 235.399 320.412C235.889 319.478 236.134 318.417 236.134 317.227C236.134 316.037 235.889 314.987 235.399 314.077C234.933 313.143 234.279 312.408 233.439 311.872C232.599 311.335 231.631 311.067 230.534 311.067C229.438 311.067 228.469 311.335 227.629 311.872C226.789 312.385 226.124 313.108 225.634 314.042C225.144 314.975 224.899 316.037 224.899 317.227C224.899 318.417 225.144 319.478 225.634 320.412C226.124 321.345 226.789 322.08 227.629 322.617C228.469 323.153 229.438 323.422 230.534 323.422ZM243.164 326.432V300.532H246.769V311.837L246.139 312.257C246.373 311.44 246.828 310.693 247.504 310.017C248.181 309.317 248.986 308.757 249.919 308.337C250.853 307.893 251.809 307.672 252.789 307.672C254.189 307.672 255.356 307.952 256.289 308.512C257.223 309.048 257.923 309.877 258.389 310.997C258.856 312.117 259.089 313.528 259.089 315.232V326.432H255.484V315.477C255.484 314.427 255.344 313.563 255.064 312.887C254.784 312.187 254.353 311.685 253.769 311.382C253.186 311.055 252.463 310.915 251.599 310.962C250.899 310.962 250.258 311.078 249.674 311.312C249.091 311.522 248.578 311.825 248.134 312.222C247.714 312.618 247.376 313.085 247.119 313.622C246.886 314.135 246.769 314.695 246.769 315.302V326.432H244.984C244.681 326.432 244.378 326.432 244.074 326.432C243.771 326.432 243.468 326.432 243.164 326.432ZM272.205 326.782C270.315 326.782 268.635 326.385 267.165 325.592C265.718 324.775 264.575 323.667 263.735 322.267C262.918 320.867 262.51 319.257 262.51 317.437C262.51 315.99 262.743 314.672 263.21 313.482C263.677 312.292 264.318 311.265 265.135 310.402C265.975 309.515 266.967 308.838 268.11 308.372C269.277 307.882 270.537 307.637 271.89 307.637C273.08 307.637 274.188 307.87 275.215 308.337C276.242 308.78 277.128 309.398 277.875 310.192C278.645 310.985 279.228 311.93 279.625 313.027C280.045 314.1 280.243 315.278 280.22 316.562L280.185 318.102H265.17L264.365 315.232H277.07L276.545 315.827V314.987C276.475 314.217 276.218 313.528 275.775 312.922C275.332 312.315 274.772 311.837 274.095 311.487C273.418 311.137 272.683 310.962 271.89 310.962C270.63 310.962 269.568 311.207 268.705 311.697C267.842 312.163 267.188 312.863 266.745 313.797C266.302 314.707 266.08 315.838 266.08 317.192C266.08 318.475 266.348 319.595 266.885 320.552C267.422 321.485 268.18 322.208 269.16 322.722C270.14 323.235 271.272 323.492 272.555 323.492C273.465 323.492 274.305 323.34 275.075 323.037C275.868 322.733 276.72 322.185 277.63 321.392L279.45 323.947C278.89 324.507 278.202 324.997 277.385 325.417C276.592 325.837 275.74 326.175 274.83 326.432C273.943 326.665 273.068 326.782 272.205 326.782ZM283.788 326.432V308.057H287.428V313.832L287.078 312.432C287.334 311.545 287.766 310.74 288.373 310.017C289.003 309.293 289.714 308.722 290.508 308.302C291.324 307.882 292.164 307.672 293.028 307.672C293.424 307.672 293.798 307.707 294.148 307.777C294.521 307.847 294.813 307.928 295.023 308.022L294.078 311.942C293.798 311.825 293.483 311.732 293.133 311.662C292.806 311.568 292.479 311.522 292.153 311.522C291.523 311.522 290.916 311.65 290.333 311.907C289.773 312.14 289.271 312.478 288.828 312.922C288.408 313.342 288.069 313.843 287.813 314.427C287.556 314.987 287.428 315.605 287.428 316.282V326.432H283.788ZM307.923 326.432V301.932H311.318L326.298 321.987L325.738 322.302C325.645 321.718 325.563 321.088 325.493 320.412C325.423 319.712 325.353 318.977 325.283 318.207C325.237 317.413 325.19 316.585 325.143 315.722C325.12 314.835 325.097 313.913 325.073 312.957C325.05 312 325.038 311.008 325.038 309.982V301.932H328.818V326.432H325.353L310.618 307.112L311.003 306.622C311.12 308.045 311.213 309.258 311.283 310.262C311.377 311.242 311.447 312.082 311.493 312.782C311.563 313.458 311.61 314.018 311.633 314.462C311.657 314.882 311.668 315.232 311.668 315.512C311.692 315.792 311.703 316.037 311.703 316.247V326.432H307.923ZM342.992 326.782C341.102 326.782 339.422 326.385 337.952 325.592C336.506 324.775 335.362 323.667 334.522 322.267C333.706 320.867 333.297 319.257 333.297 317.437C333.297 315.99 333.531 314.672 333.997 313.482C334.464 312.292 335.106 311.265 335.922 310.402C336.762 309.515 337.754 308.838 338.897 308.372C340.064 307.882 341.324 307.637 342.677 307.637C343.867 307.637 344.976 307.87 346.002 308.337C347.029 308.78 347.916 309.398 348.662 310.192C349.432 310.985 350.016 311.93 350.412 313.027C350.832 314.1 351.031 315.278 351.007 316.562L350.972 318.102H335.957L335.152 315.232H347.857L347.332 315.827V314.987C347.262 314.217 347.006 313.528 346.562 312.922C346.119 312.315 345.559 311.837 344.882 311.487C344.206 311.137 343.471 310.962 342.677 310.962C341.417 310.962 340.356 311.207 339.492 311.697C338.629 312.163 337.976 312.863 337.532 313.797C337.089 314.707 336.867 315.838 336.867 317.192C336.867 318.475 337.136 319.595 337.672 320.552C338.209 321.485 338.967 322.208 339.947 322.722C340.927 323.235 342.059 323.492 343.342 323.492C344.252 323.492 345.092 323.34 345.862 323.037C346.656 322.733 347.507 322.185 348.417 321.392L350.237 323.947C349.677 324.507 348.989 324.997 348.172 325.417C347.379 325.837 346.527 326.175 345.617 326.432C344.731 326.665 343.856 326.782 342.992 326.782ZM354.575 326.432V300.532H358.18V311.837L357.55 312.257C357.784 311.44 358.239 310.693 358.915 310.017C359.592 309.317 360.397 308.757 361.33 308.337C362.264 307.893 363.22 307.672 364.2 307.672C365.6 307.672 366.767 307.952 367.7 308.512C368.634 309.048 369.334 309.877 369.8 310.997C370.267 312.117 370.5 313.528 370.5 315.232V326.432H366.895V315.477C366.895 314.427 366.755 313.563 366.475 312.887C366.195 312.187 365.764 311.685 365.18 311.382C364.597 311.055 363.874 310.915 363.01 310.962C362.31 310.962 361.669 311.078 361.085 311.312C360.502 311.522 359.989 311.825 359.545 312.222C359.125 312.618 358.787 313.085 358.53 313.622C358.297 314.135 358.18 314.695 358.18 315.302V326.432H356.395C356.092 326.432 355.789 326.432 355.485 326.432C355.182 326.432 354.879 326.432 354.575 326.432ZM382.111 326.782C380.594 326.782 379.206 326.362 377.946 325.522C376.709 324.682 375.717 323.538 374.971 322.092C374.224 320.645 373.851 319.012 373.851 317.192C373.851 315.348 374.224 313.715 374.971 312.292C375.741 310.845 376.767 309.713 378.051 308.897C379.357 308.08 380.816 307.672 382.426 307.672C383.382 307.672 384.257 307.812 385.051 308.092C385.844 308.372 386.532 308.768 387.116 309.282C387.722 309.772 388.212 310.343 388.586 310.997C388.982 311.65 389.227 312.35 389.321 313.097L388.516 312.817V308.057H392.156V326.432H388.516V322.057L389.356 321.812C389.216 322.442 388.924 323.06 388.481 323.667C388.061 324.25 387.512 324.775 386.836 325.242C386.182 325.708 385.447 326.082 384.631 326.362C383.837 326.642 382.997 326.782 382.111 326.782ZM383.056 323.457C384.152 323.457 385.121 323.188 385.961 322.652C386.801 322.115 387.454 321.38 387.921 320.447C388.411 319.49 388.656 318.405 388.656 317.192C388.656 316.002 388.411 314.94 387.921 314.007C387.454 313.073 386.801 312.338 385.961 311.802C385.121 311.265 384.152 310.997 383.056 310.997C381.982 310.997 381.026 311.265 380.186 311.802C379.369 312.338 378.716 313.073 378.226 314.007C377.759 314.94 377.526 316.002 377.526 317.192C377.526 318.405 377.759 319.49 378.226 320.447C378.716 321.38 379.369 322.115 380.186 322.652C381.026 323.188 381.982 323.457 383.056 323.457ZM396.839 326.432V308.057H400.444V311.837L399.814 312.257C400.047 311.44 400.502 310.693 401.179 310.017C401.856 309.317 402.661 308.757 403.594 308.337C404.527 307.893 405.484 307.672 406.464 307.672C407.864 307.672 409.031 307.952 409.964 308.512C410.897 309.048 411.597 309.877 412.064 310.997C412.531 312.117 412.764 313.528 412.764 315.232V326.432H409.159V315.477C409.159 314.427 409.019 313.563 408.739 312.887C408.459 312.187 408.027 311.685 407.444 311.382C406.861 311.055 406.137 310.915 405.274 310.962C404.574 310.962 403.932 311.078 403.349 311.312C402.766 311.522 402.252 311.825 401.809 312.222C401.389 312.618 401.051 313.085 400.794 313.622C400.561 314.135 400.444 314.695 400.444 315.302V326.432H398.659C398.356 326.432 398.052 326.432 397.749 326.432C397.446 326.432 397.142 326.432 396.839 326.432ZM417.899 326.432V308.057H421.504V326.432H417.899ZM419.649 303.997C418.879 303.997 418.284 303.798 417.864 303.402C417.444 303.005 417.234 302.445 417.234 301.722C417.234 301.045 417.444 300.497 417.864 300.077C418.308 299.657 418.903 299.447 419.649 299.447C420.419 299.447 421.014 299.645 421.434 300.042C421.854 300.438 422.064 300.998 422.064 301.722C422.064 302.398 421.843 302.947 421.399 303.367C420.979 303.787 420.396 303.997 419.649 303.997ZM432.716 326.432L424.946 308.057H428.831L434.431 321.812L433.766 322.127L439.751 308.057H443.461L435.306 326.432H432.716Z" fill="url(#paint4_linear_315_170)"/>
<path d="M67.1268 98.646V81.146H69.7768L76.1518 91.521L74.8768 91.496L81.3268 81.146H83.8268V98.646H81.1268V91.471C81.1268 89.971 81.1601 88.621 81.2268 87.421C81.3101 86.221 81.4434 85.0293 81.6268 83.846L81.9768 84.771L76.2518 93.621H74.6018L69.0518 84.871L69.3268 83.846C69.5101 84.9627 69.6351 86.1127 69.7018 87.296C69.7851 88.4627 69.8268 89.8543 69.8268 91.471V98.646H67.1268ZM92.8832 98.896C91.7999 98.896 90.8082 98.596 89.9082 97.996C89.0249 97.396 88.3165 96.5793 87.7832 95.546C87.2499 94.5127 86.9832 93.346 86.9832 92.046C86.9832 90.7293 87.2499 89.5627 87.7832 88.546C88.3332 87.5127 89.0665 86.7043 89.9832 86.121C90.9165 85.5377 91.9582 85.246 93.1082 85.246C93.7915 85.246 94.4165 85.346 94.9832 85.546C95.5499 85.746 96.0415 86.0293 96.4582 86.396C96.8915 86.746 97.2415 87.1543 97.5082 87.621C97.7915 88.0877 97.9665 88.5877 98.0332 89.121L97.4582 88.921V85.521H100.058V98.646H97.4582V95.521L98.0582 95.346C97.9582 95.796 97.7499 96.2377 97.4332 96.671C97.1332 97.0877 96.7415 97.4627 96.2582 97.796C95.7915 98.1293 95.2665 98.396 94.6832 98.596C94.1165 98.796 93.5165 98.896 92.8832 98.896ZM93.5582 96.521C94.3415 96.521 95.0332 96.3293 95.6332 95.946C96.2332 95.5627 96.6999 95.0377 97.0332 94.371C97.3832 93.6877 97.5582 92.9127 97.5582 92.046C97.5582 91.196 97.3832 90.4377 97.0332 89.771C96.6999 89.1043 96.2332 88.5793 95.6332 88.196C95.0332 87.8127 94.3415 87.621 93.5582 87.621C92.7915 87.621 92.1082 87.8127 91.5082 88.196C90.9249 88.5793 90.4582 89.1043 90.1082 89.771C89.7749 90.4377 89.6082 91.196 89.6082 92.046C89.6082 92.9127 89.7749 93.6877 90.1082 94.371C90.4582 95.0377 90.9249 95.5627 91.5082 95.946C92.1082 96.3293 92.7915 96.521 93.5582 96.521ZM105.029 98.646V82.171H107.604V98.646H105.029ZM102.304 88.021V85.521H110.654V88.021H102.304ZM114.373 98.646V82.171H116.948V98.646H114.373ZM111.648 88.021V85.521H119.998V88.021H111.648ZM129.5 98.646V81.146H136.8C137.916 81.146 138.858 81.3127 139.625 81.646C140.391 81.9793 140.966 82.4793 141.35 83.146C141.75 83.796 141.95 84.596 141.95 85.546C141.95 86.496 141.683 87.3043 141.15 87.971C140.633 88.6377 139.908 89.096 138.975 89.346V88.846C139.758 89.0127 140.441 89.3127 141.025 89.746C141.608 90.1627 142.058 90.6877 142.375 91.321C142.708 91.9543 142.875 92.6793 142.875 93.496C142.875 94.3293 142.741 95.071 142.475 95.721C142.225 96.3543 141.841 96.8877 141.325 97.321C140.825 97.7543 140.216 98.0877 139.5 98.321C138.783 98.5377 137.966 98.646 137.05 98.646H129.5ZM132.2 96.046H136.9C137.583 96.046 138.158 95.946 138.625 95.746C139.108 95.546 139.475 95.2543 139.725 94.871C139.991 94.471 140.125 93.996 140.125 93.446C140.125 92.9293 139.983 92.4877 139.7 92.121C139.433 91.7543 139.05 91.4793 138.55 91.296C138.05 91.096 137.458 90.996 136.775 90.996H132.2V96.046ZM132.2 88.396H136.65C137.15 88.396 137.591 88.296 137.975 88.096C138.375 87.896 138.683 87.621 138.9 87.271C139.133 86.921 139.25 86.521 139.25 86.071C139.25 85.321 139 84.746 138.5 84.346C138 83.946 137.283 83.746 136.35 83.746H132.2V88.396ZM151.492 98.896C150.209 98.896 149.059 98.6043 148.042 98.021C147.042 97.421 146.25 96.6127 145.667 95.596C145.084 94.5627 144.792 93.3877 144.792 92.071C144.792 90.7543 145.084 89.5877 145.667 88.571C146.25 87.5377 147.042 86.7293 148.042 86.146C149.059 85.546 150.209 85.246 151.492 85.246C152.759 85.246 153.892 85.546 154.892 86.146C155.909 86.7293 156.709 87.5377 157.292 88.571C157.875 89.5877 158.167 90.7543 158.167 92.071C158.167 93.3877 157.875 94.5627 157.292 95.596C156.709 96.6127 155.909 97.421 154.892 98.021C153.892 98.6043 152.759 98.896 151.492 98.896ZM151.492 96.546C152.275 96.546 152.975 96.3543 153.592 95.971C154.209 95.571 154.692 95.0377 155.042 94.371C155.392 93.6877 155.559 92.921 155.542 92.071C155.559 91.2043 155.392 90.4377 155.042 89.771C154.692 89.0877 154.209 88.5543 153.592 88.171C152.975 87.7877 152.275 87.596 151.492 87.596C150.709 87.596 150 87.796 149.367 88.196C148.75 88.5793 148.267 89.1127 147.917 89.796C147.567 90.4627 147.4 91.221 147.417 92.071C147.4 92.921 147.567 93.6877 147.917 94.371C148.267 95.0377 148.75 95.571 149.367 95.971C150 96.3543 150.709 96.546 151.492 96.546ZM160.723 98.646V85.521H163.323V89.646L163.073 88.646C163.256 88.0127 163.565 87.4377 163.998 86.921C164.448 86.4043 164.956 85.996 165.523 85.696C166.106 85.396 166.706 85.246 167.323 85.246C167.606 85.246 167.873 85.271 168.123 85.321C168.39 85.371 168.598 85.4293 168.748 85.496L168.073 88.296C167.873 88.2127 167.648 88.146 167.398 88.096C167.165 88.0293 166.931 87.996 166.698 87.996C166.248 87.996 165.815 88.0877 165.398 88.271C164.998 88.4377 164.64 88.6793 164.323 88.996C164.023 89.296 163.781 89.6543 163.598 90.071C163.415 90.471 163.323 90.9127 163.323 91.396V98.646H160.723ZM170.606 98.646V80.146H173.181V98.646H170.606ZM181.386 98.896C180.303 98.896 179.311 98.596 178.411 97.996C177.528 97.396 176.819 96.5793 176.286 95.546C175.753 94.5127 175.486 93.346 175.486 92.046C175.486 90.7293 175.753 89.5627 176.286 88.546C176.836 87.5127 177.569 86.7043 178.486 86.121C179.419 85.5377 180.461 85.246 181.611 85.246C182.294 85.246 182.919 85.346 183.486 85.546C184.053 85.746 184.544 86.0293 184.961 86.396C185.394 86.746 185.744 87.1543 186.011 87.621C186.294 88.0877 186.469 88.5877 186.536 89.121L185.961 88.921V85.521H188.561V98.646H185.961V95.521L186.561 95.346C186.461 95.796 186.253 96.2377 185.936 96.671C185.636 97.0877 185.244 97.4627 184.761 97.796C184.294 98.1293 183.769 98.396 183.186 98.596C182.619 98.796 182.019 98.896 181.386 98.896ZM182.061 96.521C182.844 96.521 183.536 96.3293 184.136 95.946C184.736 95.5627 185.203 95.0377 185.536 94.371C185.886 93.6877 186.061 92.9127 186.061 92.046C186.061 91.196 185.886 90.4377 185.536 89.771C185.203 89.1043 184.736 88.5793 184.136 88.196C183.536 87.8127 182.844 87.621 182.061 87.621C181.294 87.621 180.611 87.8127 180.011 88.196C179.428 88.5793 178.961 89.1043 178.611 89.771C178.278 90.4377 178.111 91.196 178.111 92.046C178.111 92.9127 178.278 93.6877 178.611 94.371C178.961 95.0377 179.428 95.5627 180.011 95.946C180.611 96.3293 181.294 96.521 182.061 96.521ZM191.906 98.646V85.521H194.481V88.221L194.031 88.521C194.198 87.9377 194.523 87.4043 195.006 86.921C195.49 86.421 196.065 86.021 196.731 85.721C197.398 85.4043 198.081 85.246 198.781 85.246C199.781 85.246 200.615 85.446 201.281 85.846C201.948 86.2293 202.448 86.821 202.781 87.621C203.115 88.421 203.281 89.4293 203.281 90.646V98.646H200.706V90.821C200.706 90.071 200.606 89.4543 200.406 88.971C200.206 88.471 199.898 88.1127 199.481 87.896C199.065 87.6627 198.548 87.5627 197.931 87.596C197.431 87.596 196.973 87.6793 196.556 87.846C196.14 87.996 195.773 88.2127 195.456 88.496C195.156 88.7793 194.915 89.1127 194.731 89.496C194.565 89.8627 194.481 90.2627 194.481 90.696V98.646H193.206C192.99 98.646 192.773 98.646 192.556 98.646C192.34 98.646 192.123 98.646 191.906 98.646ZM212 98.896C210.8 98.896 209.725 98.6043 208.775 98.021C207.841 97.421 207.1 96.6127 206.55 95.596C206 94.5627 205.725 93.3877 205.725 92.071C205.725 90.7543 205.991 89.5877 206.525 88.571C207.075 87.5377 207.816 86.7293 208.75 86.146C209.683 85.546 210.741 85.246 211.925 85.246C212.575 85.246 213.2 85.3543 213.8 85.571C214.416 85.771 214.966 86.0543 215.45 86.421C215.933 86.771 216.308 87.1627 216.575 87.596C216.858 88.0127 217 88.4377 217 88.871L216.25 88.921V80.146H218.825V98.646H216.25V95.521H216.75C216.75 95.921 216.616 96.321 216.35 96.721C216.083 97.1043 215.725 97.4627 215.275 97.796C214.841 98.1293 214.333 98.396 213.75 98.596C213.183 98.796 212.6 98.896 212 98.896ZM212.35 96.671C213.133 96.671 213.825 96.471 214.425 96.071C215.025 95.671 215.491 95.1293 215.825 94.446C216.175 93.746 216.35 92.9543 216.35 92.071C216.35 91.1877 216.175 90.4043 215.825 89.721C215.491 89.021 215.025 88.471 214.425 88.071C213.825 87.671 213.133 87.471 212.35 87.471C211.566 87.471 210.875 87.671 210.275 88.071C209.675 88.471 209.2 89.021 208.85 89.721C208.516 90.4043 208.35 91.1877 208.35 92.071C208.35 92.9543 208.516 93.746 208.85 94.446C209.2 95.1293 209.675 95.671 210.275 96.071C210.875 96.471 211.566 96.671 212.35 96.671Z" fill="url(#paint5_linear_315_170)"/>
<defs>
<linearGradient id="paint0_linear_315_170" x1="230.065" y1="19.8955" x2="267.858" y2="148.931" gradientUnits="userSpaceOnUse">
<stop stop-color="#C067E2"/>
<stop offset="1" stop-color="#749BFF"/>
</linearGradient>
<linearGradient id="paint1_linear_315_170" x1="277.785" y1="109.764" x2="253.392" y2="207.402" gradientUnits="userSpaceOnUse">
<stop stop-color="#FF76A5"/>
<stop offset="1" stop-color="#FE8C5A"/>
</linearGradient>
<linearGradient id="paint2_linear_315_170" x1="321.074" y1="170.215" x2="351.238" y2="269.144" gradientUnits="userSpaceOnUse">
<stop offset="0.0416667" stop-color="#749BFF"/>
<stop offset="1" stop-color="#FFCD20"/>
</linearGradient>
<linearGradient id="paint3_linear_315_170" x1="272.971" y1="196.104" x2="272.971" y2="284.104" gradientUnits="userSpaceOnUse">
<stop stop-color="#FF76A5"/>
<stop offset="1" stop-color="#C067E2"/>
</linearGradient>
<linearGradient id="paint4_linear_315_170" x1="121.233" y1="303.104" x2="137.322" y2="382.018" gradientUnits="userSpaceOnUse">
<stop stop-color="#C067E2"/>
<stop offset="1" stop-color="#749BFF"/>
</linearGradient>
<linearGradient id="paint5_linear_315_170" x1="191.688" y1="85.6573" x2="172.354" y2="136.306" gradientUnits="userSpaceOnUse">
<stop stop-color="#FE8C5A"/>
<stop offset="1" stop-color="#F7BF00"/>
</linearGradient>
</defs>
</svg>
