<svg width="9" height="15" viewBox="0 0 9 15" fill="none" xmlns="http://www.w3.org/2000/svg">
<path d="M4.49987 14.2106C4.60941 14.2106 4.75496 14.1443 4.82567 14.0771L8.85219 10.2876C9.03508 10.1107 9.05623 9.82405 8.8707 9.61786C8.70466 9.43349 8.38101 9.42886 8.20076 9.59936L4.97368 12.6412L4.97368 0.473652C4.97368 0.211957 4.76155 0 4.50002 0C4.23833 0 4.02637 0.21213 4.02637 0.473652L4.02637 12.6412L0.799292 9.59936C0.619046 9.42886 0.303308 9.44092 0.129522 9.61786C-0.0540257 9.80455 -0.0376701 10.1135 0.148026 10.2876L4.17438 14.0771C4.28358 14.1885 4.38882 14.2088 4.50001 14.2106H4.49987Z" fill="white" fill-opacity="0.6"/>
</svg>
