<svg width="61" height="76" viewBox="0 0 61 76" fill="none" xmlns="http://www.w3.org/2000/svg">
<path d="M51.029 28.2281V20.6284C51.029 13.2583 47.0972 6.448 40.7152 2.76351C34.3325 -0.92117 26.4688 -0.92117 20.0853 2.76351C13.7033 6.44819 9.77148 13.2584 9.77148 20.6284V28.2281C7.08796 28.5081 4.60284 29.7724 2.79763 31.7783C0.993111 33.7834 -0.00445202 36.3878 1.49371e-05 39.0858V65.1431C1.49371e-05 68.0222 1.14365 70.7843 3.18012 72.8199C5.21593 74.8563 7.97707 76 10.857 76H49.9428C52.8227 76 55.584 74.8564 57.6197 72.8199C59.656 70.7841 60.7998 68.0222 60.7998 65.1431V39.0858C60.8041 36.3878 59.8066 33.7835 58.0021 31.7783C56.1969 29.7724 53.7118 28.5081 51.0283 28.2281H51.029ZM32.5723 49.9431V54.2858C32.5723 55.4854 31.5995 56.4574 30.4006 56.4574C29.2017 56.4574 28.2289 55.4854 28.2289 54.2858V49.9431C28.2289 48.7442 29.2017 47.7714 30.4006 47.7714C31.5995 47.7714 32.5723 48.7442 32.5723 49.9431ZM30.4006 4.34295C34.72 4.34295 38.862 6.05878 41.9163 9.1131C44.9705 12.1674 46.6864 16.3094 46.6864 20.6287V28.2285H14.1149V20.6287C14.1149 16.3094 15.8307 12.1674 18.885 9.1131C21.9393 6.05882 26.0813 4.34295 30.4006 4.34295Z" fill="white"/>
</svg>
